<?xml version="1.0" encoding="UTF-8" standalone="no"?>
<!-- Created with Inkscape (http://www.inkscape.org/) -->

<svg xmlns:dc="http://purl.org/dc/elements/1.1/" xmlns:cc="http://creativecommons.org/ns#" xmlns:rdf="http://www.w3.org/1999/02/22-rdf-syntax-ns#" xmlns:svg="http://www.w3.org/2000/svg" xmlns="http://www.w3.org/2000/svg" xmlns:sodipodi="http://sodipodi.sourceforge.net/DTD/sodipodi-0.dtd" xmlns:inkscape="http://www.inkscape.org/namespaces/inkscape" width="83" height="84" viewBox="0 0 83.000001 84.000001" id="svg7755" version="1.1" inkscape:version="0.91 r13725" sodipodi:docname="logo-white.svg">
  <defs id="defs7757" />
  <sodipodi:namedview id="base" pagecolor="#ffffff" bordercolor="#666666" borderopacity="1.0" inkscape:pageopacity="0.0" inkscape:pageshadow="2" inkscape:zoom="1.2359375" inkscape:cx="95.23505" inkscape:cy="-62.626372" inkscape:document-units="px" inkscape:current-layer="layer1" showgrid="false" units="px" fit-margin-top="2" fit-margin-right="2" fit-margin-bottom="2" fit-margin-left="2" inkscape:window-width="1863" inkscape:window-height="1053" inkscape:window-x="57" inkscape:window-y="27" inkscape:window-maximized="1" />
  <metadata id="metadata7760">
    <rdf:RDF>
      <cc:Work rdf:about="">
        <dc:format>image/svg+xml</dc:format>
        <dc:type rdf:resource="http://purl.org/dc/dcmitype/StillImage" />
        <dc:title></dc:title>
      </cc:Work>
    </rdf:RDF>
  </metadata>
  <g inkscape:label="Layer 1" inkscape:groupmode="layer" id="layer1" transform="translate(-131.69921,-385.73581)">
    <path inkscape:connector-curvature="0" id="path5944" d="m 188.34378,387.7375 c -2.89516,0 -5.81806,0.065 -8.64473,0.1282 -2.60859,0.058 -5.30559,0.1203 -7.95613,0.1281 -4.13147,0.012 -8.20125,0.31169 -12.13937,0.60239 -4.01471,0.29629 -8.1666,0.60229 -12.37477,0.60229 -0.75618,0 -1.45789,0 -2.10874,-0.013 -1.63943,-0.021 -3.10373,-0.1984 -4.39721,-0.3545 -1.08411,-0.1309 -2.01962,-0.24349 -2.8531,-0.24349 -3.03905,0 -4.17052,1.74967 -4.17052,6.46319 0,2.02427 0.53009,4.03024 1.04376,5.9678 0.49634,1.87237 1.01321,3.80504 1.01371,5.69431 l -0.0811,4.41283 0.36787,0.01 -0.36787,0 c 0.01,0.39059 0.01,0.78329 0.01,1.17478 l 0,0.013 c 0,1.18308 -0.027,2.35476 -0.0551,3.59264 -0.029,1.26768 -0.0601,2.57656 -0.0601,3.93004 l 0.37218,0 -0.37218,0.039 c 0,2.56176 0.01,5.14331 0.013,7.68927 0,3.00095 0.01,5.95241 0.01,8.75306 l 0,0.01 c 0,3.22225 -0.01,5.75381 -0.021,7.97117 l 0,0.077 c 0,1.43088 0.25704,2.81785 0.50476,4.16073 0.24532,1.33008 0.50005,2.70806 0.50045,4.11383 2e-4,0.2732 -0.011,0.5406 -0.03,0.80309 l 0.36788,0.03 0,0.3674 c 1.1549,7e-4 2.37879,0.19819 3.73425,0.60229 6.09481,1.81777 16.01189,2.06296 23.98365,2.25976 1.8501,0.045 3.59857,0.089 5.14578,0.1496 l 4.45709,-0.01 c 2.37418,0 4.52527,0.013 6.58305,0.034 l 1.27896,0.013 c 2.60258,0.025 5.29357,0.05 8.01591,0.11099 0.5414,0.012 1.0822,0.013 1.62551,0.013 l 0.43196,0 0.44488,0 c 0.14409,0 0.28757,0 0.43206,0 0.0861,0 0.17463,0 0.26084,0 3.22409,-0.046 6.3916,-0.41619 9.45748,-0.77738 3.10754,-0.3666 6.32021,-0.74589 9.56442,-0.77749 l 0,-0.37169 0.36788,0 c -0.036,-1.94857 -0.45809,-3.73624 -0.86412,-5.46362 -0.29489,-1.25318 -0.59658,-2.55035 -0.73996,-3.87033 -0.32042,-2.94876 -0.32953,-5.87441 -0.33794,-8.70596 0,-0.49129 -0.01,-0.97279 -0.01,-1.44818 -0.01,-0.83878 -0.01,-1.69317 -0.013,-2.55456 -0.01,-1.22348 -0.011,-2.46466 -0.021,-3.72074 l 0,-0.22639 c 0,-2.84796 0.4632,-5.72551 0.91108,-8.50526 0.44859,-2.78646 0.91539,-5.66491 0.91539,-8.52657 l -0.37218,0 0.36788,-0.047 -0.35927,-2.96896 c 0,-0.049 0.01,-0.12439 0.01,-0.21359 0,-0.85299 -0.29067,-1.15318 -0.56032,-1.24738 l -0.36788,-0.64499 c -0.54751,-0.91219 -0.62672,-1.99057 -0.62882,-2.92625 l 0,-0.1495 -0.6972,0 0.6972,-0.013 c 0,-0.84549 0.16962,-1.66738 0.34655,-2.53746 0.0341,-0.1716 0.0691,-0.3453 0.10263,-0.51689 0.36498,-1.86647 0.5389,-3.40805 0.5389,-4.71613 0,-7.41928 -5.67457,-7.90767 -18.50853,-8.30016 -1.49094,-0.046 -3.04756,-0.068 -4.75648,-0.068 z m 0,0.73909 c 1.70141,0 3.24762,0.023 4.73084,0.068 12.65544,0.38719 17.79241,0.81368 17.79421,7.56107 0,1.25988 -0.17452,2.75586 -0.53039,4.57513 -0.033,0.1701 -0.0681,0.33849 -0.10273,0.50839 -0.17633,0.86749 -0.35927,1.76737 -0.35927,2.68696 l 0,0.1624 c 0,1.03628 0.0951,2.23876 0.73145,3.29784 l 0.55603,0.97389 0.18404,0 c 0.031,0.053 0.0851,0.21259 0.0851,0.54679 0,0.077 0,0.14189 0,0.18369 l 0,0.06 0.57745,-0.021 -0.57325,0.068 0.35937,2.96045 c 0,2.79576 -0.4598,5.63931 -0.90257,8.38987 -0.45259,2.80845 -0.9197,5.7136 -0.9197,8.62056 l 0,0.23059 c 0.01,1.25508 0.015,2.49826 0.021,3.72084 0,0.86169 0.01,1.71518 0.013,2.55456 0,0.47429 0.01,0.95789 0.01,1.44808 0.01,2.71765 0.017,5.7961 0.34224,8.78296 0.148,1.36547 0.4571,2.68505 0.75709,3.95993 0.37098,1.57758 0.75267,3.20325 0.82977,4.93402 -3.15429,0.056 -6.25782,0.42269 -9.26493,0.77749 -3.04736,0.35899 -6.19855,0.73219 -9.38469,0.77739 l -0.24812,0 c -0.14188,0 -0.28167,0 -0.42345,0 l -0.44918,0 -0.43627,0 c -0.5378,0 -1.07229,-6e-4 -1.60829,-0.013 -2.72704,-0.061 -5.42404,-0.086 -8.02883,-0.111 l -1.27465,-0.013 c -2.06008,-0.021 -4.21487,-0.03 -6.59156,-0.03 l -4.44007,0 c -1.53749,-0.06 -3.28867,-0.1037 -5.14148,-0.1495 -7.92779,-0.1959 -17.79521,-0.44039 -23.7955,-2.22996 -1.27496,-0.3803 -2.43947,-0.58429 -3.55031,-0.62369 0.01,-0.1556 0.01,-0.312 0.01,-0.4699 -3e-4,-1.47307 -0.26194,-2.88375 -0.51326,-4.24613 -0.25303,-1.37077 -0.49184,-2.66485 -0.49184,-4.02833 l 0,-0.073 c 0.014,-2.21896 0.021,-4.75182 0.021,-7.97557 l 0,-0.01 c -2e-4,-2.80125 0,-5.75171 -0.01,-8.75296 0,-2.54566 -0.012,-5.13031 -0.013,-7.72777 -2e-4,-1.34498 0.0311,-2.64956 0.0601,-3.91294 0.028,-1.24248 0.0551,-2.41806 0.0551,-3.60974 l 0,-0.013 c 0,-0.39369 0,-0.78599 -0.01,-1.17898 l 0.0771,-4.40853 -0.36788,-0.01 0.36788,0 c 0,-1.98647 -0.52638,-3.97183 -1.03514,-5.8909 -0.50135,-1.89187 -1.01813,-3.84734 -1.01813,-5.77551 0,-4.84202 1.15581,-5.72851 3.43056,-5.72851 0.78913,0 1.70281,0.1111 2.76329,0.2392 1.3119,0.1582 2.79913,0.33779 4.47852,0.35889 0.65374,0.01 1.35776,0.017 2.11725,0.017 4.2354,0 8.40231,-0.30519 12.43034,-0.60239 3.9253,-0.28979 7.98287,-0.58979 12.0881,-0.60229 2.65785,-0.01 5.35655,-0.07 7.96885,-0.12819 2.82276,-0.063 5.74496,-0.1281 8.63191,-0.1281 z m -12.39179,4.33163 c 0,1.20428 0.01,2.43116 0.026,3.68234 0.016,1.25178 0.0561,2.47866 0.11975,3.68224 0.0631,0.60219 0.0941,1.22078 0.0941,1.85397 l 0,1.90097 c 0,2.85105 -0.14219,5.671 -0.42776,8.45826 -0.15911,1.64737 -0.4628,3.26485 -0.90688,4.84852 -0.44457,1.58447 -1.02863,3.13555 -1.75798,4.65632 -0.34935,0.72909 -0.71463,1.34748 -1.09502,1.85397 -0.3807,0.5071 -0.88836,0.94849 -1.52278,1.32848 l 0,-0.047 c -0.50766,0.2222 -1.03084,0.4291 -1.56984,0.61949 -0.5398,0.1898 -1.03184,0.2862 -1.47571,0.2862 -0.15931,0 -0.31632,-0.015 -0.47482,-0.047 -0.15911,-0.031 -0.30149,-0.066 -0.42776,-0.098 -0.5398,-0.1582 -0.99169,-0.48819 -1.35596,-0.99538 -0.36507,-0.50639 -0.67457,-1.01389 -0.9282,-1.52078 -0.31732,-0.79148 -0.58116,-1.64817 -0.78703,-2.56736 -0.20686,-0.91838 -0.33874,-1.76027 -0.40202,-2.52035 -0.0951,-0.85539 -0.14549,-1.80378 -0.14549,-2.84926 l 0,-0.66649 c -0.032,-0.60129 -0.0631,-1.22578 -0.0941,-1.87527 -0.032,-0.64919 -0.11325,-1.25818 -0.23951,-1.82837 -0.15911,-0.85538 -0.25103,-1.71197 -0.28237,-2.56736 -0.032,-0.85558 -0.0511,-1.69607 -0.0511,-2.52035 l 0,-0.5682 c 0,-0.79148 0.01,-1.59307 0.026,-2.40076 0.015,-0.80778 0.026,-1.62347 0.026,-2.44776 0,-0.28499 0,-0.65529 0.021,-1.11498 0.016,-0.45879 0.026,-0.83399 0.026,-1.11918 0.031,-0.76039 0.0521,-1.57597 0.0681,-2.44776 0.015,-0.87079 0.026,-1.68297 0.026,-2.44356 l -0.95384,0 c 0,0.76059 0,1.59787 -0.021,2.51616 -0.016,0.91908 -0.0411,1.80597 -0.0731,2.66135 0,0.2538 0,0.5782 -0.021,0.97399 -0.016,0.39639 -0.026,0.72089 -0.026,0.97398 -0.032,0.82429 -0.0571,1.63998 -0.0731,2.44776 -0.016,0.80769 -0.021,1.60928 -0.021,2.40076 l 0,0.5682 c 0,0.95038 0.025,1.85287 0.0731,2.70835 0.0481,0.85519 0.16461,1.72797 0.35506,2.61426 0.12626,0.66539 0.20757,1.35508 0.23951,2.06757 0.031,0.71308 0.0621,1.40227 0.0941,2.06766 0,0.1589 0.01,0.326 0.021,0.49979 0.016,0.1744 0.026,0.3415 0.026,0.4998 0,0.28519 0.01,0.60009 0.026,0.94828 0.016,0.34899 0.037,0.66339 0.0681,0.94838 0.0631,0.88729 0.19044,1.84017 0.38069,2.85356 0.19045,1.01428 0.44388,1.88597 0.76139,2.61436 l 0,-0.047 c 0.25363,0.66539 0.60348,1.27438 1.04796,1.82837 0.44388,0.55479 0.9979,0.96008 1.66396,1.21318 l 0.0981,0 c 0.41183,0.15889 0.85431,0.23499 1.33033,0.23499 0.63402,0 1.24331,-0.1113 1.83067,-0.33319 0.58637,-0.2213 1.13478,-0.49029 1.64254,-0.80739 l 0,0.047 c 0.85641,-0.41109 1.50075,-0.88378 1.9292,-1.42258 0.42846,-0.53849 0.83018,-1.22218 1.21047,-2.04616 0.69761,-1.42598 1.28618,-3.00785 1.76229,-4.75023 0.47572,-1.74207 0.79023,-3.47114 0.94964,-5.18181 0.12626,-1.36168 0.2327,-2.78636 0.3123,-4.27603 0.0791,-1.48868 0.11545,-2.89875 0.11545,-4.22913 l 0,-1.90097 c 0,-0.69629 -0.031,-1.31488 -0.0941,-1.85397 -0.0631,-1.20368 -0.10434,-2.43056 -0.11976,-3.68234 -0.016,-1.25118 -0.021,-2.47796 -0.021,-3.68234 l -1.0009,0 z m 21.50703,0.1452 c -0.12717,0.50719 -0.20427,0.94838 -0.23531,1.32857 -0.032,0.3802 -0.0511,0.71439 -0.0511,0.99959 0,0.44409 0.019,0.87978 0.0511,1.30718 0.031,0.42789 0.0771,0.85968 0.14118,1.30287 0.0951,0.91919 0.14119,1.80618 0.14119,2.66136 l 0,0.1923 c 0,0.69749 0.01,1.40198 0.026,2.11446 0.015,0.71289 0.0371,1.43318 0.0681,2.16157 0.031,0.44409 0.0561,0.92038 0.0731,1.42688 0.016,0.50689 0.026,1.01428 0.026,1.52077 0.031,0.2851 0.0471,0.56029 0.0471,0.82869 l 0,0.78598 c 0,1.23528 -0.03,2.44747 -0.0941,3.63535 -0.0631,1.18808 -0.16031,2.38486 -0.28657,3.58834 -0.12747,1.17258 -0.20858,2.36936 -0.23962,3.58834 -0.032,1.22008 -0.0471,2.43186 -0.0471,3.63534 l 0,0.2819 c -0.47561,-1.10879 -0.91859,-2.18427 -1.33022,-3.22945 -0.41254,-1.04558 -0.8436,-2.14037 -1.28758,-3.28075 -0.1591,-0.34829 -0.30609,-0.70929 -0.44908,-1.08938 -0.14258,-0.38019 -0.29498,-0.77559 -0.45339,-1.18758 -0.41253,-1.04558 -0.83348,-2.09927 -1.26194,-3.16115 -0.42805,-1.06108 -0.86532,-2.11587 -1.3089,-3.16115 -0.31771,-0.60159 -0.63272,-1.27588 -0.94953,-2.02057 -0.31761,-0.74398 -0.65245,-1.51037 -1.0009,-2.30246 l 0,0.047 c -0.41304,-1.04528 -0.83929,-2.11546 -1.28327,-3.20815 -0.44467,-1.09298 -0.84059,-2.00486 -1.18914,-2.73405 -0.0641,-0.1262 -0.16001,-0.2992 -0.28657,-0.52109 -0.12697,-0.2213 -0.26935,-0.4593 -0.42776,-0.71339 l 0.0471,0.047 -0.19245,-0.4272 c -0.1588,-0.25339 -0.32242,-0.54729 -0.49624,-0.87998 -0.17463,-0.3327 -0.32713,-0.64179 -0.45339,-0.92699 0,-0.063 -0.031,-0.15519 -0.0941,-0.28199 l 0,0.047 c -0.12717,-0.3484 -0.3046,-0.72819 -0.52609,-1.14058 -0.22229,-0.4113 -0.55301,-0.63459 -0.99669,-0.66639 l -0.47482,0.047 c -0.12726,2.37596 -0.22339,4.48542 -0.28657,6.32229 -0.0641,1.83777 -0.0941,3.56174 -0.0941,5.17752 l 0,7.08268 c 0,0.66539 -0.01,1.43178 -0.026,2.30247 -0.016,0.87198 -0.0561,1.67237 -0.11975,2.40076 -0.032,0.18989 -0.0531,0.37819 -0.0681,0.56819 -0.016,0.19019 -0.0571,0.41319 -0.11976,0.66639 -0.0641,0.25389 -0.11444,0.54729 -0.14548,0.87998 -0.032,0.3327 -0.0631,0.72279 -0.0941,1.16628 -0.032,0.4439 -0.0571,0.87019 -0.0731,1.28148 -0.016,0.412 -0.021,0.83869 -0.021,1.28158 0,0.63449 0.03,1.34868 0.0941,2.14017 0.0631,0.79238 0.17443,1.55277 0.33364,2.28116 l 1.001,-0.047 c -0.15971,-0.72839 -0.27025,-1.48298 -0.33374,-2.25976 -0.0641,-0.77559 -0.0981,-1.48018 -0.0981,-2.11457 0,-0.44289 0.01,-0.86958 0.026,-1.28158 0.015,-0.41129 0.0411,-0.83758 0.0731,-1.28158 0,-0.18999 0.015,-0.43759 0.0471,-0.73898 0.031,-0.3009 0.0771,-0.5789 0.14118,-0.83299 0.0631,-0.2531 0.10323,-0.52239 0.11975,-0.80739 0.015,-0.28519 0.0411,-0.55359 0.0731,-0.80738 0.031,-0.85519 0.0521,-1.68708 0.0681,-2.49476 0.015,-0.80769 0.026,-1.57338 0.026,-2.30247 l 0,-7.08278 c 0,-1.67877 0.025,-3.32665 0.0731,-4.94242 0.0471,-1.61568 0.14889,-3.22885 0.308,-4.84432 l 0.14118,0.47419 0.23951,0.66639 c 0.12647,0.222 0.26865,0.45999 0.42776,0.71339 0.1585,0.25379 0.31521,0.50269 0.47481,0.75618 l 0.76139,1.57198 c 0.3809,0.72909 0.72034,1.45448 1.02233,2.18286 0.30109,0.72919 0.59607,1.48968 0.88114,2.28117 0.12627,0.38009 0.3037,0.79168 0.52619,1.23458 0.34845,0.79238 0.68879,1.58827 1.02223,2.37946 0.33283,0.79229 0.65775,1.50257 0.97526,2.13586 0.57094,1.33078 1.10954,2.62926 1.6169,3.89594 0.50746,1.26758 1.03004,2.56976 1.56984,3.90014 0.50676,1.23568 1.00901,2.47826 1.50135,3.72934 0.49164,1.25218 0.98898,2.49376 1.49714,3.72934 l 0.42776,0.85438 c 0.0631,0.1589 0.16542,0.3814 0.308,0.66639 0.14269,0.2852 0.24802,0.45809 0.31221,0.52119 l 0.0941,0.1922 0.76139,0 c -0.032,-0.47499 -0.0471,-0.99758 -0.0471,-1.56778 l 0,-1.56777 c 0,-1.20348 0.015,-2.41526 0.0471,-3.63534 0.031,-1.21898 0.11244,-2.41576 0.23951,-3.58834 0.0951,-1.20348 0.18153,-2.40026 0.26094,-3.58834 0.0791,-1.18788 0.11975,-2.40007 0.11975,-3.63535 l 0,-0.76038 c 0,-0.3161 -0.02,-0.60029 -0.0511,-0.85429 l -0.0941,-1.94797 c -0.0641,-0.85578 -0.10423,-1.73717 -0.11975,-2.64005 -0.016,-0.90239 -0.021,-1.78028 -0.021,-2.63566 l 0,-0.1923 c 0,-0.25279 -0.01,-0.54299 -0.026,-0.87568 -0.017,-0.3327 -0.0371,-0.62619 -0.0681,-0.87999 0,-0.1582 -0.01,-0.31009 -0.026,-0.45279 -0.016,-0.1424 -0.026,-0.2939 -0.026,-0.4528 -0.0951,-0.88668 -0.14118,-1.75487 -0.14118,-2.61015 0,-0.2852 0.015,-0.60949 0.0471,-0.97399 0.031,-0.36359 0.11244,-0.79998 0.23961,-1.30718 l -1.001,-0.047 z m -44.06213,0.66218 c -0.38049,0 -0.73635,0.025 -1.06929,0.073 -0.33323,0.048 -0.67347,0.103 -1.02232,0.1666 -1.33243,0.285 -2.37849,0.85329 -3.13968,1.70867 -0.76119,0.85529 -1.12707,1.92027 -1.09502,3.18685 0,0.50709 0.0461,0.99868 0.14118,1.47378 0.25353,1.29928 0.69941,2.60305 1.33453,3.91723 0.63413,1.31488 1.26865,2.52656 1.90347,3.63534 0.0631,0.095 0.12437,0.2373 0.18825,0.4272 0.0631,0.19029 0.0781,0.27119 0.0471,0.23919 0.15821,0.1589 0.32572,0.3664 0.50045,0.61939 0.17403,0.2541 0.37228,0.52239 0.59457,0.80739 l 0.71433,0.85439 0.14539,0.18799 c 0.1584,0.159 0.32152,0.3969 0.49624,0.71339 0.17393,0.3168 0.34115,0.65129 0.50045,0.99959 l 0.14539,0.33319 c 0.031,0.064 0.0831,0.1499 0.16261,0.2606 0.0791,0.11139 0.17002,0.22849 0.26515,0.35459 0.44387,1.01428 0.86042,2.11417 1.25753,3.30205 0.39632,1.18808 0.59457,2.30766 0.59457,3.35344 0,0.91909 -0.25443,1.82677 -0.76139,2.72966 -0.50776,0.90288 -1.30018,1.62347 -2.37818,2.16156 -0.85662,0.3489 -1.61811,0.52539 -2.28417,0.52539 -0.15921,0 -0.30129,-0.015 -0.42776,-0.047 -0.44467,-0.031 -0.82527,-0.17289 -1.14208,-0.42709 -0.31741,-0.25289 -0.58686,-0.54149 -0.80845,-0.85868 -0.44468,-0.5386 -0.81526,-1.11669 -1.11645,-1.73438 -0.30159,-0.61789 -0.48433,-1.28718 -0.54751,-2.01626 -0.032,-0.063 -0.0471,-0.1285 -0.0471,-0.1922 0,-0.063 0.01,-0.1094 0.021,-0.141 0.016,-0.031 0.026,-0.081 0.026,-0.1453 l 0,-0.80738 -0.95384,0 0,0.80738 c 0,0.064 -0.01,0.1138 -0.021,0.1453 -0.016,0.032 -0.026,0.078 -0.026,0.141 l 0,0.2862 c 0,0.095 0.015,0.17579 0.0471,0.23919 0.0631,0.63399 0.27646,1.30338 0.64163,2.01627 0.36428,0.71279 0.7703,1.35658 1.21478,1.92667 0.25353,0.34889 0.60328,0.70399 1.04796,1.06788 0.44388,0.36449 0.93592,0.57759 1.47572,0.64079 0.0631,0.032 0.16531,0.047 0.308,0.047 l 0.308,0 c 1.01492,0 1.93371,-0.1879 2.75888,-0.56809 1.36367,-0.57019 2.31761,-1.38068 2.85741,-2.42646 0.5389,-1.04519 0.80845,-2.16627 0.80845,-3.37045 0,-1.23558 -0.20847,-2.47236 -0.6203,-3.70794 -0.41264,-1.23558 -0.88535,-2.36046 -1.42435,-3.37474 l 0,0.047 -0.23951,-0.70909 c -0.0951,-0.2213 -0.23731,-0.48429 -0.42776,-0.78609 -0.19045,-0.30049 -0.50986,-0.76719 -0.95394,-1.40118 l -0.66296,-0.85428 -0.0471,-0.098 c -0.50786,-0.50629 -0.87343,-0.97849 -1.09502,-1.42258 l -0.42776,-0.80738 0.0471,0 c -0.5398,-1.04559 -1.09722,-2.22067 -1.66826,-3.51995 -0.57094,-1.29868 -1.01352,-2.50036 -1.33023,-3.60974 0,-0.063 -0.01,-0.1189 -0.026,-0.1666 -0.016,-0.047 -0.021,-0.10279 -0.021,-0.16659 -0.032,-0.1582 -0.0571,-0.3255 -0.0731,-0.4998 -0.016,-0.17379 -0.021,-0.30639 -0.021,-0.40149 0,-0.95058 0.32472,-1.77597 0.97526,-2.47346 0.64965,-0.69629 1.48233,-1.17248 2.49795,-1.42678 0.6973,-0.15809 1.3125,-0.23499 1.8522,-0.23499 0.31671,0 0.65135,0.046 1.0009,0.141 0.34875,0.095 0.68359,0.20689 1.0009,0.33319 0.19045,0.095 0.39351,0.2164 0.616,0.35889 0.22139,0.1426 0.43507,0.3004 0.64164,0.4741 0.20616,0.17449 0.37328,0.35649 0.50045,0.54689 0.12626,0.18979 0.17652,0.37779 0.14538,0.56809 l 1.04376,0 c 0,-0.72839 -0.28457,-1.31158 -0.85551,-1.75567 -0.57094,-0.4433 -1.09402,-0.79259 -1.56984,-1.04669 l -0.0941,-0.094 c -0.66627,-0.3485 -1.47772,-0.5254 -2.42956,-0.5254 z m 14.013,39.34777 c -0.0521,0 -0.10043,0 -0.154,0.013 -0.0401,0.01 -0.0761,0.01 -0.10263,0.01 -0.0831,0 -0.15711,0 -0.22249,0.013 -0.16171,0.021 -0.37849,0.01 -0.6159,0.021 -0.152,0.01 -0.28357,0.024 -0.385,0.038 l -0.49615,0.021 c -0.30339,0.031 -0.6218,0.057 -0.94532,0.073 l -0.94533,0.043 -0.20957,0 c -0.17082,0 -0.33784,-5e-4 -0.50045,-0.01 -0.16281,-0.01 -0.33023,-0.019 -0.50906,-0.034 l -0.14119,0 c -8e-4,0 -0.011,0 -0.03,-0.01 -0.034,-0.011 -0.0641,-0.016 -0.0771,-0.017 -0.11635,-0.016 -0.23921,-0.021 -0.37218,-0.021 l -0.31651,0 c -0.0491,0 -0.12436,9e-4 -0.22239,0.01 -0.0941,0.01 -0.32853,0.039 -0.70582,0.085 l -0.0811,0.01 0.026,1.00818 0.10264,-0.017 c 0.39801,-0.057 0.57014,-0.075 0.64163,-0.081 0.0981,-0.01 0.17853,-0.01 0.23961,-0.01 0.13928,0 0.28617,9e-4 0.44057,0.01 0.1516,0.01 0.3092,0.019 0.48333,0.034 0.032,0.021 0.0721,0.026 0.10694,0.026 l 0.10263,0 c 0.12917,0.016 0.27766,0.026 0.43637,0.026 l 0.47051,0 0,0.61519 c -0.017,0.098 -0.026,0.2168 -0.026,0.3546 l 0,1.46518 c 0,0.037 0,0.078 0.026,0.10679 -2e-4,0.3084 0,0.64869 -0.013,1.02529 -0.01,0.38169 -0.019,0.73049 -0.034,1.04228 -0.016,0.32829 -0.026,0.65769 -0.0341,0.98678 -0.01,0.3285 -0.013,0.66989 -0.013,1.02959 0,0.43909 -0.01,0.89908 -0.026,1.36698 -0.016,0.46489 -0.037,0.92708 -0.0681,1.37547 0,0.061 -0.01,0.1318 -0.013,0.2136 -0.01,0.089 -0.013,0.1712 -0.013,0.2521 l 0,0.43999 c -0.016,0.29809 -0.031,0.59579 -0.038,0.89278 -0.01,0.2977 -0.01,0.60559 -0.01,0.91839 l 0,0.61949 c 0,0.1972 0,0.38549 0.021,0.55959 0.015,0.1524 0.026,0.34429 0.034,0.56819 0.01,0.226 0.013,0.45939 0.013,0.70049 l 0,1.36708 0.98378,0 0,-1.29868 c 0,-0.2426 0,-0.48679 -0.013,-0.73049 -0.01,-0.2387 -0.019,-0.44679 -0.0341,-0.61519 l 0,-0.67919 c 0,-0.064 -0.01,-0.1029 -0.021,-0.1324 0,-4e-4 0,-0.012 0,-0.034 l 0,-0.32469 c 0,-0.45229 0.01,-0.91159 0.026,-1.35838 0.015,-0.44339 0.037,-0.89798 0.0681,-1.35418 0.031,-0.45779 0.0531,-0.91828 0.0681,-1.37128 0.016,-0.47009 0.026,-0.93438 0.026,-1.37557 0,-0.3581 0,-0.69829 0.013,-1.02519 0.01,-0.32759 0.018,-0.65519 0.034,-0.98258 0.015,-0.35999 0.026,-0.70979 0.0341,-1.04658 0.01,-0.3361 0.013,-0.66069 0.013,-0.97399 0,-0.063 -0.01,-0.1028 -0.021,-0.1324 -2e-4,0 0,-0.01 0,-0.03 l 0,-1.46518 c 0,-0.082 0.01,-0.1849 0.026,-0.3162 l 0,-0.53819 c 0,-0.05 0,-0.1005 0.01,-0.14959 l 1.43296,-0.1324 c 0.1529,-0.015 0.37449,-0.031 0.67588,-0.047 0.30279,-0.015 0.52989,-0.021 0.69721,-0.021 l 0.18814,0 c 0.034,0 0.0811,0 0.14118,-0.013 0.0491,-0.01 0.0871,-0.013 0.11555,-0.013 l 0.0941,0 -0.026,-0.97818 -0.35075,0 z m -14.23108,0.068 0,0.235 c 0,0.024 0,0.045 -0.01,0.068 -0.01,0.038 -0.013,0.07 -0.013,0.094 l 0,0.094 c 0,0.077 0,0.19239 -0.013,0.34599 -0.01,0.1579 -0.013,0.3216 -0.013,0.48699 l 0,0.84579 -0.14119,1.52077 c -0.016,0.1431 -0.021,0.2782 -0.021,0.4059 l 0,1.07218 -0.026,0.33319 c 0,0.1748 0.01,0.3761 0.026,0.59379 0.015,0.2187 0.037,0.4197 0.0681,0.5895 l 0.0941,0.85438 0,0.88859 c 0,0.067 0.01,0.1068 0.026,0.14089 l 0,0.282 c 0,0.024 0,0.05 -0.01,0.073 -0.01,0.037 -0.017,0.075 -0.017,0.1153 l 0,0.81168 c -0.016,0.1845 -0.021,0.3956 -0.021,0.62799 l 0,1.39258 c 0,0.48409 -0.01,0.96939 -0.013,1.46098 -0.01,0.49259 -0.038,0.98388 -0.0811,1.44387 l -0.026,0.1153 0,0.1111 c -0.015,0.1734 -0.021,0.34159 -0.021,0.49979 l 0,1.08938 c 0,0.015 -0.01,0.052 -0.043,0.1409 l -0.0341,0.66649 0.54321,0 c 0.11925,0 0.2313,-0.017 0.33363,-0.051 0.0391,-0.012 0.0751,-0.021 0.11125,-0.021 l 1.68959,0 c 0.023,0 0.032,0 0.03,0 0.028,0.015 0.0551,0.021 0.0851,0.021 l 0.59027,0 c 0.28116,0 0.61339,-0.01 0.98808,-0.026 0.36958,-0.015 0.70712,-0.037 1.001,-0.068 l 0.28227,0 c 0.0591,0 0.10333,-0.01 0.13687,-0.017 0.02,-0.01 0.029,-0.01 0.0471,-0.01 0.0741,-0.014 0.16521,-0.021 0.27375,-0.021 l 0.50476,0 0,-0.98258 -0.44488,0 c -0.0451,0 -0.0841,0.01 -0.11976,0.026 l -0.81706,0 c -0.037,0 -0.0671,0.01 -0.0851,0.021 l -0.11545,0 c -0.29158,0.031 -0.57194,0.047 -0.83408,0.047 l -3.16531,0 0,-0.3503 c 0,-0.13989 0,-0.32159 0.013,-0.54679 0.01,-0.22449 0.018,-0.42679 0.0341,-0.59799 0.03,-0.49419 0.0521,-0.99538 0.0601,-1.49087 0.01,-0.49249 0.01,-0.98049 0.01,-1.46528 l 0,-1.37128 c 0,-0.22229 0.01,-0.42529 0.026,-0.61089 l 0.021,-0.35879 0,-0.96119 c 0,-0.036 -0.01,-0.062 -0.021,-0.081 l 0,-0.85439 c 0.0441,0 0.0781,-0.012 0.10264,-0.026 0.034,0 0.0611,-0.012 0.0981,-0.026 0.28828,-0.046 0.5376,-0.068 0.74427,-0.068 l 1.26184,-0.094 0.70151,0 c 0.0821,0 0.16491,0.01 0.24812,0.03 l 0.013,0.01 c 0.0781,0.04 0.17242,0.052 0.26514,0.043 0.0751,-0.01 0.147,-0.01 0.22249,-0.01 l 1.14629,0 0.03,-0.98248 -1.06929,0 c -0.1585,0 -0.29248,0 -0.385,-0.017 -0.11725,-0.033 -0.25423,-0.051 -0.41063,-0.051 l -0.7699,0 -1.26194,0.094 c -0.12656,0 -0.26514,7e-4 -0.41484,0.01 -0.14819,0.01 -0.27976,0.024 -0.38069,0.038 -0.0581,0 -0.11225,0.01 -0.16261,0.03 -0.01,0 -0.023,0.01 -0.034,0.01 -0.0581,-0.1683 -0.0851,-0.337 -0.0851,-0.4998 l 0,-0.85438 c 0,-0.046 0.01,-0.1298 0.013,-0.252 0.01,-0.1266 0.01,-0.26969 0.01,-0.43579 l 0,-0.85009 0.0731,-0.83298 c 0.032,-0.1943 0.0471,-0.3558 0.0471,-0.487 l 0,-0.90138 c 0,-0.1623 0.01,-0.3311 0.017,-0.50829 l 1.32182,0 c 0.26534,0 0.57344,0.01 0.93241,0.013 0.35676,0.01 0.68699,0.026 0.97526,0.056 0.11005,0.016 0.24672,0.03 0.40643,0.038 0.15811,0.01 0.30059,0.013 0.42766,0.013 l 0.0851,0 0.89826,0.068 0.39782,0 c 0.0721,0 0.14028,-0.011 0.19676,-0.03 l 0.0601,-0.017 0,-1.02949 -0.67577,0.026 -0.14119,0 c -0.13327,0 -0.22759,0 -0.29939,-0.021 l -1.3132,-0.073 c -0.33053,-0.015 -0.66657,-0.021 -0.99239,-0.021 l -2.23711,0 c -0.023,-0.015 -0.0511,-0.026 -0.0811,-0.026 l -0.86833,0 z m 22.49511,0.073 c -0.36086,0.019 -0.70001,0.1038 -1.00951,0.2521 -0.34645,0.1647 -0.68849,0.36109 -1.01802,0.58099 -0.40963,0.26709 -0.81476,0.61089 -1.20196,1.02098 -0.3851,0.4083 -0.72374,0.81979 -1.00521,1.22598 l -0.45338,0.63649 c -0.16782,0.2037 -0.31171,0.432 -0.43207,0.67919 -0.14729,0.3011 -0.29448,0.61159 -0.43626,0.92699 -0.22089,0.50359 -0.39031,1.06438 -0.50045,1.67037 -0.10984,0.60419 -0.16261,1.21538 -0.16261,1.81117 0,0.35969 0.011,0.67769 0.034,0.95268 0.024,0.2746 0.0491,0.5466 0.0811,0.81589 0.0621,0.40579 0.14508,0.80769 0.23961,1.19188 0.0951,0.3879 0.19655,0.76379 0.30369,1.11488 0.0961,0.3513 0.25834,0.72639 0.47902,1.11929 0.18014,0.32139 0.3828,0.60499 0.60739,0.84578 l 0.3807,0.45279 c 0.0971,0.1309 0.2358,0.2733 0.42355,0.4358 0.18113,0.15789 0.35786,0.28809 0.52608,0.38869 l 0.74427,0.37169 0.20536,0.1153 c 0.14439,0.096 0.31361,0.1939 0.50045,0.2948 0.19676,0.1064 0.41244,0.1772 0.63733,0.20929 l 0.35076,0.064 c 0.033,0.024 0.0671,0.03 0.0901,0.03 l 0.0471,0 c 0.12816,0.032 0.27095,0.056 0.43626,0.073 0.16201,0.016 0.28407,0.021 0.3807,0.021 l 0.14118,0 c 0.0721,0 0.13688,-0.01 0.17533,-0.021 0.12326,-0.015 0.23751,-0.03 0.33794,-0.038 0.11004,-0.01 0.19164,-0.028 0.25232,-0.064 l 0.24813,-0.068 c 0.1562,-0.047 0.31951,-0.095 0.49193,-0.14949 0.17213,-0.055 0.31622,-0.1063 0.42776,-0.1538 l 0.34645,-0.141 c 0.32763,-0.078 0.63613,-0.1724 0.91108,-0.28189 0.28197,-0.1128 0.56123,-0.2943 0.83839,-0.53829 0.36448,-0.364 0.65205,-0.74249 0.85121,-1.13209 0.19555,-0.38269 0.38179,-0.75928 0.55612,-1.12348 l 0.0771,-0.20929 0,0.15809 0.17963,-0.63649 c 0.031,-0.1092 0.0681,-0.23909 0.10694,-0.38879 0.0391,-0.1485 0.0761,-0.2847 0.10694,-0.40579 l 0.0641,-0.2179 0.026,-0.051 c 0.0511,-0.1189 0.0911,-0.34579 0.12406,-0.70489 l 0.0681,-0.48269 c 0.0471,-0.2023 0.0841,-0.39949 0.11555,-0.58949 0.032,-0.1888 0.0471,-0.40819 0.0471,-0.64929 l 0,-0.32899 c 0,-0.2494 -0.0501,-0.461 -0.1498,-0.62789 l -0.18814,-0.3546 -0.0551,0 c -0.15811,0 -0.30079,0.01 -0.42345,0.026 -0.12206,0.017 -0.21338,0.031 -0.27806,0.047 -0.0561,0.014 -0.12186,0.021 -0.19255,0.021 l -1.69811,0 -0.66726,-0.068 c -0.0761,0 -0.16292,-0.01 -0.25664,-0.021 -0.10874,-0.017 -0.20276,-0.03 -0.26524,-0.026 -0.0841,-0.017 -0.19556,-0.026 -0.32512,-0.026 l -1.54411,0 0,1.00819 0.81696,0 c 0.0661,0 0.10644,-0.01 0.14118,-0.026 l 0.56464,0 c 0.0861,0 0.17653,0.01 0.28226,0.026 0,0 0.01,0 0.03,0 0.032,0.01 0.0581,0.013 0.0771,0.017 l 0.90258,0.09 0.11545,0.026 1.93341,0 c 0.0821,0 0.15159,0 0.20106,-0.013 l 0,0.2264 c 0,0.1657 -0.01,0.31919 -0.021,0.45699 -0.015,0.1335 -0.0631,0.31 -0.13688,0.51689 -0.035,0.088 -0.0551,0.1974 -0.0641,0.3418 -0.01,0.1312 -0.018,0.25899 -0.034,0.39299 l 0,0.1282 c -0.011,0.015 -0.023,0.04 -0.026,0.068 -0.016,0.053 -0.021,0.112 -0.021,0.1794 l 0,0.14519 c -0.034,0.033 -0.0481,0.067 -0.0511,0.094 -0.031,0.091 -0.0741,0.2058 -0.13257,0.3461 -0.0641,0.15169 -0.11365,0.29499 -0.14119,0.40999 l -0.28226,0.65369 -0.01,0.03 c 0,3e-4 -9e-4,0.011 -0.013,0.034 -0.019,0.037 -0.031,0.077 -0.034,0.1153 -0.13728,0.30349 -0.30099,0.63719 -0.49194,0.99538 -0.19165,0.35979 -0.38169,0.64349 -0.55181,0.82869 -0.148,0.11829 -0.34165,0.22209 -0.58176,0.31189 -0.24942,0.093 -0.49755,0.1773 -0.73565,0.252 -0.029,0 -0.0521,0.014 -0.0681,0.03 -0.0861,0.028 -0.18484,0.055 -0.29519,0.077 -0.12967,0.026 -0.22399,0.058 -0.26945,0.09 -0.16461,0.075 -0.3911,0.1511 -0.67587,0.2264 l -0.10694,0 -0.0341,0 c -0.17573,0.073 -0.41093,0.122 -0.6972,0.1367 l -0.0641,0.021 c -0.14609,0 -0.33073,-0.023 -0.56463,-0.068 -0.022,0 -0.0391,0 -0.0561,-0.01 -0.0331,-0.01 -0.0671,-0.017 -0.10694,-0.017 l -0.43196,-0.094 c -0.26645,-0.044 -0.50255,-0.1384 -0.71012,-0.28619 -0.25043,-0.1719 -0.4551,-0.3081 -0.6117,-0.4101 -0.157,-0.102 -0.30419,-0.18819 -0.44057,-0.25629 -0.14579,-0.058 -0.27065,-0.1308 -0.37208,-0.2179 -0.10744,-0.092 -0.20127,-0.1753 -0.27376,-0.2478 l -0.35076,-0.40149 c -0.21297,-0.2271 -0.40022,-0.48909 -0.55181,-0.77749 -0.1516,-0.28689 -0.26465,-0.59289 -0.34215,-0.91848 -0.10834,-0.3551 -0.21067,-0.72579 -0.30379,-1.09778 -0.0941,-0.3751 -0.17513,-0.74269 -0.23521,-1.08939 -0.03,-0.24109 -0.0571,-0.50829 -0.0811,-0.81588 -0.023,-0.2934 -0.0341,-0.55569 -0.0341,-0.78609 0,-0.49189 0.0501,-1.00178 0.1497,-1.50788 0.10013,-0.50669 0.26164,-1.01058 0.47912,-1.50797 0.12366,-0.3551 0.26625,-0.68969 0.41915,-0.99538 0.15299,-0.306 0.3082,-0.5688 0.45769,-0.77739 l 0.47482,-0.57679 -0.01,0 0.11976,-0.1281 c 0.27215,-0.3359 0.5405,-0.65629 0.79563,-0.94839 0.25694,-0.29469 0.57164,-0.55019 0.93251,-0.76038 l 0.19245,-0.098 c 0.21048,-0.1204 0.43557,-0.2356 0.67158,-0.346 0.22238,-0.10299 0.45989,-0.15379 0.71002,-0.15379 0.36888,0 0.75057,0.033 1.13347,0.10249 0.3845,0.069 0.7686,0.1526 1.13357,0.2435 l 0.50045,0.1795 0.10263,0.06 c 0.0611,0.072 0.15511,0.1107 0.27376,0.1153 l 0.23531,0.12819 c 0.0801,0.048 0.14969,0.085 0.20957,0.111 0.0421,0.018 0.0761,0.039 0.0941,0.055 l 0.14118,0.1666 0.03,0.021 c 0.12336,0.062 0.2288,0.1176 0.32082,0.17089 0.0921,0.054 0.18564,0.114 0.27806,0.1752 l 0.28227,0.2392 0,-0.013 c 0.0671,0.064 0.13157,0.1269 0.19245,0.19219 0.0931,0.1001 0.14118,0.2228 0.14118,0.3717 l 0,0.094 1.01802,-0.03 -0.013,-0.1025 c -0.0481,-0.36979 -0.13067,-0.64319 -0.24803,-0.82029 -0.11364,-0.16999 -0.2314,-0.30739 -0.34655,-0.40579 l -0.18814,-0.1666 -0.021,-0.013 c -0.029,-0.014 -0.0621,-0.03 -0.0981,-0.051 -0.0411,-0.025 -0.0751,-0.049 -0.0981,-0.06 l -1.32603,-0.89278 c -0.0671,-0.033 -0.14729,-0.066 -0.24381,-0.098 -0.11135,-0.037 -0.14679,-0.065 -0.154,-0.073 l 0,-0.021 -0.0391,0 -0.01,-0.026 -0.043,0 -0.017,-0.013 c -0.0571,-0.034 -0.12597,-0.072 -0.20527,-0.1111 l 0.021,0 -0.0641,-0.021 c -0.017,-0.01 -0.034,-0.017 -0.0511,-0.026 -0.10804,-0.051 -0.23971,-0.092 -0.39361,-0.12389 l -0.03,-0.01 c -0.70912,-0.2363 -1.55572,-0.3545 -2.51507,-0.3545 -0.0521,0 -0.10243,0 -0.154,0 z m 23.23087,0 0,0.09 c 0,0.1398 0,0.3375 -0.013,0.59389 -0.01,0.2576 -0.015,0.45589 -0.03,0.61079 -0.016,0.023 -0.026,0.053 -0.026,0.085 l 0,1.94367 c 0,0.036 0,0.075 0.021,0.1069 4e-4,0 0,0.012 0,0.034 l 0,0.76888 c 0,0.2174 -9e-4,0.4258 -0.01,0.61939 -0.01,0.1947 -0.023,0.3995 -0.038,0.62369 l 0,0.2264 c -0.016,0.2432 -0.021,0.49249 -0.021,0.73479 l 0,0.72619 c 0,0.56959 -0.026,1.15118 -0.0731,1.73437 -0.0461,0.57669 -0.10013,1.17098 -0.16261,1.76427 -0.016,0.129 -0.026,0.27849 -0.026,0.44429 l 0,1.72157 c 0,0.046 0.01,0.083 0.021,0.111 0,0 0,0.01 0,0.03 0,0.1222 0,0.2285 -0.013,0.3204 -0.01,0.091 -0.018,0.18419 -0.034,0.29049 l 0,0.71339 1.0052,0.141 0,-0.57239 c 0,-0.027 0,-0.046 0.01,-0.056 0.011,-0.033 0.014,-0.059 0.013,-0.073 0.017,-0.115 0.026,-0.2516 0.026,-0.40159 l 0,-1.31998 c 0,-0.079 -0.01,-0.1502 -0.026,-0.2051 l 0,-0.65359 c 0,-0.1445 0.01,-0.28499 0.026,-0.43139 0,-0.091 0.01,-0.128 0.013,-0.141 0.023,-0.034 0.0341,-0.091 0.0341,-0.2222 l 0,-0.21349 c 0.0461,-0.44359 0.0831,-0.95009 0.11555,-1.50368 0.031,-0.55009 0.0471,-1.04558 0.0471,-1.47807 l 0,-0.72629 c 0,-0.2267 0.01,-0.46949 0.026,-0.72619 l 0,-1.07648 c 0,-0.058 0,-0.1199 0.013,-0.1794 0.01,-0.065 0.01,-0.1396 0.01,-0.2222 l 0,-0.76888 c 0,-0.046 -0.01,-0.086 -0.021,-0.1153 0,-4e-4 0,0 0,-0.026 l 0,-1.87537 c 0,-0.021 0,-0.036 0.01,-0.051 0.01,-0.033 0.014,-0.063 0.013,-0.077 0.015,-0.1261 0.03,-0.31439 0.0391,-0.57239 0.01,-0.2505 0.01,-0.46969 0.01,-0.65789 l 0,-0.09 -0.95814,0 z m -7.69519,0.068 c -0.11054,10e-5 -0.22199,0.01 -0.33363,0.013 -0.12817,0.01 -0.24742,0.018 -0.36357,0.034 -0.0721,0.014 -0.13017,0.025 -0.17964,0.026 -0.32011,0.032 -0.65375,0.1171 -0.99669,0.2606 -0.33804,0.14139 -0.63623,0.27859 -0.88966,0.40589 -0.22189,0.1266 -0.42685,0.2594 -0.60739,0.39299 -0.18123,0.1329 -0.34835,0.2594 -0.50906,0.3887 l -0.31651,0.28619 0,-0.038 -0.57745,0.57669 c -0.23871,0.2225 -0.47271,0.4831 -0.693,0.78179 -0.21608,0.2927 -0.42295,0.59649 -0.6159,0.90139 l -0.18394,0.32889 -0.013,0.034 c -3.1e-4,8e-4 -0.01,0.027 -0.0681,0.085 l -0.013,0.017 c -0.31571,0.53669 -0.55692,1.11608 -0.71433,1.72147 -0.1572,0.60389 -0.27706,1.18608 -0.35506,1.73437 -0.0471,0.4206 -0.0681,0.88999 -0.0681,1.39268 0,0.92698 0.1555,1.86887 0.462,2.80225 0.3088,0.93999 0.81606,1.75268 1.50996,2.41367 0.17533,0.17549 0.35977,0.32939 0.55172,0.45709 0.18855,0.1261 0.3819,0.23799 0.57324,0.33319 l 0.0341,0.01 c 7e-4,3e-4 0.023,0.01 0.0981,0.081 l 0.32932,0.205 0,-0.013 0.0391,0.026 c 0.0721,0.029 0.152,0.074 0.23952,0.1324 0.0791,0.052 0.14939,0.099 0.20536,0.14099 0.013,0.041 0.0391,0.082 0.0851,0.1282 0.0581,0.057 0.12517,0.095 0.20106,0.1153 l 0.026,0.021 c 0.022,0.041 0.0691,0.094 0.16681,0.1026 l 0.18815,0.1025 c 0.17543,0.11169 0.37699,0.21729 0.59888,0.31179 0.22449,0.097 0.47331,0.154 0.74426,0.1709 0.0401,0.011 0.11826,0.021 0.29949,0.021 0.5387,0 1.08211,-0.086 1.6126,-0.2606 0.52758,-0.1726 1.04295,-0.40919 1.53129,-0.70059 0.48733,-0.29049 0.94312,-0.62689 1.36026,-1.00388 0.41574,-0.37659 0.78632,-0.76649 1.10354,-1.16188 0.59737,-0.81679 1.04135,-1.74057 1.31751,-2.74686 0.27425,-1.00388 0.41484,-2.03486 0.41484,-3.06715 0,-0.31249 -0.015,-0.60169 -0.0391,-0.85438 -0.023,-0.2505 -0.0501,-0.4955 -0.0811,-0.73049 -0.0621,-0.46559 -0.14659,-0.94969 -0.24802,-1.44388 -0.10284,-0.49449 -0.21598,-0.95258 -0.34225,-1.36268 -0.17533,-0.46099 -0.42215,-0.88358 -0.73145,-1.25598 -0.3095,-0.37229 -0.67618,-0.71178 -1.0822,-1.00808 -0.31792,-0.2538 -0.62291,-0.44389 -0.91109,-0.56389 -0.28216,-0.1171 -0.56683,-0.231 -0.8512,-0.34179 l -0.32933,-0.1153 c -0.13998,-0.046 -0.34204,-0.1063 -0.62451,-0.1794 -0.29428,-0.075 -0.62211,-0.107 -0.95394,-0.1068 z m -41.64529,0.2136 c -0.21037,-0.01 -0.41974,0.01 -0.60738,0.034 -0.16562,0.023 -0.33574,0.049 -0.51327,0.081 -0.68699,0.15959 -1.24532,0.46939 -1.65545,0.91848 -0.41334,0.45349 -0.61099,1.02558 -0.59447,1.70017 l 0,0.3759 c 0,0.1349 0.015,0.26339 0.0471,0.37169 0.0631,0.3004 0.16011,0.61789 0.28657,0.94839 0.12456,0.32649 0.26585,0.66039 0.42345,0.99098 0.156,0.32789 0.31411,0.64919 0.47051,0.96118 0.1526,0.3064 0.30179,0.59259 0.44488,0.84579 l 0.31651,0.60239 0.03,0.034 -0.01,0 0.76569,0.93129 0.33363,0.64068 0.0811,0.1197 c 0.01,0.052 0.028,0.102 0.0681,0.1495 0.014,0.08 0.0731,0.1802 0.17112,0.3033 0.21638,0.47889 0.42185,1.01238 0.6159,1.58487 0.19125,0.56569 0.29088,1.07678 0.29088,1.51648 0,0.40239 -0.12386,0.80208 -0.36357,1.19178 -0.24092,0.39069 -0.58276,0.71288 -1.00952,0.94838 -0.37759,0.1509 -0.71262,0.2264 -0.99659,0.2264 -0.0571,0 -0.11245,0 -0.17973,-0.021 -0.15651,-0.014 -0.30059,-0.071 -0.43627,-0.1709 -0.13738,-0.1008 -0.24241,-0.2187 -0.32512,-0.36309 -0.21148,-0.2404 -0.38851,-0.5025 -0.52609,-0.77749 -0.13467,-0.2677 -0.20757,-0.56789 -0.22238,-0.89709 l -0.013,-0.039 c -0.01,-0.02 -0.012,-0.03 -0.013,-0.03 0,-0.04 0,-0.026 0,-0.026 0.014,-0.028 0.021,-0.059 0.021,-0.09 l 0,-0.65349 -0.98388,0 0,0.58519 c -0.016,0.036 -0.021,0.07 -0.021,0.1153 0,0.21139 0.013,0.34329 0.0471,0.42299 0.034,0.31809 0.14368,0.65889 0.32512,1.01238 0.18163,0.3554 0.37809,0.67339 0.58596,0.94409 0.1581,0.18969 0.35486,0.38109 0.58606,0.57239 0.24021,0.19829 0.51277,0.31329 0.79133,0.34179 0.0551,0.019 0.12266,0.03 0.20526,0.03 l 0.154,0 c 0.25594,0 0.51267,-0.025 0.7657,-0.073 0.25783,-0.048 0.48553,-0.1107 0.68008,-0.19219 0.67127,-0.3189 1.16111,-0.75649 1.4586,-1.29438 0.29548,-0.53419 0.44487,-1.12659 0.44487,-1.76427 0,-0.63139 -0.10243,-1.25918 -0.308,-1.86687 -0.20446,-0.60449 -0.44377,-1.16579 -0.71002,-1.66598 l -0.13688,-0.34599 c -0.0491,-0.1131 -0.12436,-0.2594 -0.22669,-0.43999 -0.10333,-0.1829 -0.24302,-0.3968 -0.41925,-0.63649 l -0.24381,-0.2863 c -0.16642,-0.1657 -0.30149,-0.31729 -0.40202,-0.44849 -0.0951,-0.1239 -0.16532,-0.2444 -0.21388,-0.3717 l -0.20957,-0.39299 c -0.10935,-0.2342 -0.2266,-0.49669 -0.35937,-0.78599 -0.13257,-0.28809 -0.26514,-0.58469 -0.39782,-0.88858 -0.13347,-0.3057 -0.25743,-0.60899 -0.36357,-0.90559 -0.10884,-0.30179 -0.20356,-0.58079 -0.27806,-0.81588 l -0.021,-0.1453 c -0.015,-0.075 -0.027,-0.1503 -0.034,-0.2264 -0.01,-0.073 -0.013,-0.1242 -0.013,-0.1538 0,-0.36789 0.14869,-0.68979 0.45349,-0.98678 0.3078,-0.2999 0.66106,-0.51209 1.05227,-0.63219 l 0.0551,-0.017 c 0.29969,-0.064 0.55502,-0.098 0.76139,-0.098 0.0861,0 0.21418,0.024 0.37639,0.068 0.16631,0.045 0.32902,0.099 0.47902,0.158 0.16141,0.073 0.33834,0.1998 0.52618,0.37169 0.17263,0.1589 0.24392,0.31 0.21808,0.46559 l -0.021,0.1068 1.06939,0 0,-0.09 c 0,-0.24639 -0.0451,-0.47039 -0.13688,-0.66208 -0.0901,-0.1878 -0.20687,-0.3513 -0.34645,-0.4913 -0.13758,-0.13689 -0.28537,-0.25119 -0.44057,-0.34179 -0.1475,-0.084 -0.27686,-0.1674 -0.38931,-0.2477 -0.22669,-0.1292 -0.44428,-0.22049 -0.65445,-0.26909 -0.18864,-0.043 -0.40132,-0.063 -0.61159,-0.068 z m 41.69666,0.79029 c 0.19315,0 0.42415,0.04 0.68869,0.11539 0.27185,0.078 0.47902,0.1369 0.62021,0.1837 0.34354,0.1098 0.66046,0.2289 0.94963,0.35029 0.29118,0.1227 0.56113,0.2701 0.80835,0.44 0.34875,0.21149 0.64163,0.46129 0.86833,0.74759 0.22659,0.28789 0.41223,0.64858 0.54761,1.06788 0.12346,0.46309 0.22629,0.91468 0.3122,1.34138 0.0841,0.42399 0.16973,0.87028 0.24813,1.31997 0.03,0.2174 0.0581,0.4431 0.0811,0.68349 0.023,0.2405 0.0341,0.4814 0.0341,0.70919 0,0.4289 -0.038,0.88369 -0.11555,1.35418 -0.0781,0.47329 -0.18715,0.94628 -0.32503,1.40538 -0.13868,0.46259 -0.30629,0.91298 -0.49193,1.34568 -0.18514,0.43059 -0.39392,0.82198 -0.62021,1.15338 -0.26134,0.33799 -0.57565,0.67339 -0.93682,0.99528 -0.36167,0.323 -0.75868,0.60939 -1.18053,0.85439 -0.42265,0.24559 -0.86853,0.44869 -1.32172,0.60239 -0.44938,0.15169 -0.90177,0.22639 -1.34314,0.22639 l -0.038,0 c -0.25463,-0.014 -0.50015,-0.069 -0.73145,-0.16659 -0.23721,-0.099 -0.46661,-0.214 -0.67588,-0.3332 l -1.01802,-0.68359 c -0.2284,-0.1218 -0.45028,-0.24619 -0.66306,-0.37159 -0.20527,-0.1215 -0.42635,-0.2914 -0.65445,-0.50409 -0.57895,-0.53229 -1.0009,-1.20688 -1.25323,-2.00777 -0.25373,-0.80739 -0.38069,-1.64597 -0.38069,-2.49046 0,-0.2116 0.01,-0.43539 0.021,-0.66219 0.016,-0.2291 0.038,-0.44949 0.0681,-0.65779 0.0771,-0.49449 0.19486,-1.03468 0.34215,-1.60627 0.14549,-0.56619 0.34034,-1.05629 0.58175,-1.44808 l 0.33364,-0.47849 c 0.12165,-0.2428 0.27756,-0.49379 0.462,-0.74759 0.14178,-0.1946 0.29868,-0.37779 0.47051,-0.54249 l 0.43196,-0.3247 0.33373,-0.30759 c 0.1497,-0.165 0.32763,-0.32489 0.52608,-0.46979 0.19706,-0.1443 0.43086,-0.2762 0.69721,-0.4016 0.21218,-0.12149 0.47261,-0.24789 0.77421,-0.37169 0.29958,-0.1225 0.55662,-0.2045 0.74857,-0.2477 l 0.154,0 c 0.0771,0 0.1569,-0.01 0.23951,-0.026 0.0751,-0.014 0.1526,-0.026 0.2353,-0.034 0.0811,-0.01 0.14109,-0.013 0.17103,-0.013 z m 7.26744,14.61396 0,0.42299 c 0,0.097 0.01,0.1951 0.026,0.2947 0.019,0.11309 0.0691,0.21089 0.14539,0.28619 l 0.026,0.026 0.12406,0 0.01,0.026 0.0641,0 0,0 c 0.01,0 0.039,-7e-4 0.0641,-0.026 l 0.017,0 0,-0.026 c 0.0651,-0.01 0.14669,-0.02 0.25232,-0.047 0.0561,-0.018 0.11385,-0.05 0.16682,-0.085 l 0.038,-0.026 0,-0.81588 -0.93672,-0.03 z m -30.8705,0.1196 -0.16681,1.16628 1.08651,0 0.021,-0.06 c 0.0491,-0.1302 0.0811,-0.2646 0.0981,-0.4059 0.016,-0.13839 0.026,-0.33629 0.026,-0.58519 l 0,-0.094 -0.51327,0 c -0.10644,0 -0.20727,-5e-4 -0.29949,-0.01 -0.0971,-0.01 -0.1548,-0.013 -0.17102,-0.013 l -0.0811,0 z m 2.67768,13.05898 -0.27796,0.1581 0,4.44273 0.27796,0 0,-4.60083 z m 1.50996,0 -0.27796,0.1581 0,1.12778 -0.42775,0 0,0.2349 0.42775,0 0,2.49476 c 0,0.44189 0.19796,0.64079 0.56463,0.64079 0.24002,0 0.42375,-0.044 0.59448,-0.1196 l 0.01,-0.2435 c -0.15801,0.076 -0.3088,0.1111 -0.50476,0.1111 -0.27215,0 -0.3849,-0.1388 -0.3849,-0.43579 l 0,-2.44776 0.88115,0 0,-0.2349 -0.88115,0 0,-1.28588 z m 9.07248,0 -0.27796,0.1581 0,1.12778 -0.43206,0 0,0.2349 0.43206,0 0,2.49476 c 0,0.44189 0.19366,0.64079 0.56033,0.64079 0.24041,0 0.42415,-0.044 0.59457,-0.1196 l 0.013,-0.2435 c -0.1581,0.076 -0.3089,0.1111 -0.50476,0.1111 -0.27185,0 -0.385,-0.1388 -0.385,-0.43579 l 0,-2.44776 0.87694,0 0,-0.2349 -0.87694,0 0,-1.28588 z m 6.28787,0.026 c -0.40462,0 -0.71002,0.1986 -0.71002,0.77319 l 0,0.48699 -0.49194,0 0,0.235 0.49194,0 0,3.07995 0.27806,0 0,-3.07995 0.77421,0 0,-0.235 -0.77421,0 0,-0.50829 c 0,-0.38539 0.20256,-0.49979 0.44908,-0.49979 0.17072,0 0.29909,0.032 0.39351,0.077 l 0,-0.2692 c -0.0941,-0.031 -0.21878,-0.06 -0.41483,-0.06 z m 2.06608,0 c -0.40502,0 -0.70581,0.1986 -0.70581,0.77319 l 0,0.48699 -0.49615,0 0,0.235 0.49615,0 0,3.07995 0.27806,0 0,-3.07995 0.7699,0 0,-0.235 -0.7699,0 0,-0.50829 c 0,-0.38539 0.20256,-0.49979 0.44908,-0.49979 0.17082,0 0.29468,0.032 0.38931,0.077 l 0.01,-0.2692 c -0.0951,-0.031 -0.22349,-0.06 -0.41924,-0.06 z m -24.59544,1.19188 c -0.57525,0 -0.96665,0.3395 -0.96665,0.79459 0,0.49839 0.25403,0.68769 0.93671,0.97819 0.65125,0.27769 0.847,0.46209 0.847,0.80308 0,0.404 -0.29228,0.63649 -0.80424,0.63649 -0.36658,0 -0.66446,-0.1315 -0.9239,-0.34599 l -0.1497,0.20079 c 0.31601,0.2462 0.63323,0.3845 1.06939,0.3845 0.60048,0 1.0736,-0.2972 1.0736,-0.88429 0,-0.53639 -0.31531,-0.74299 -0.96666,-1.02098 -0.62571,-0.2652 -0.80845,-0.41539 -0.80845,-0.76889 0,-0.29669 0.25033,-0.53829 0.68008,-0.53829 0.39201,0 0.64074,0.1138 0.86833,0.2905 l 0.15831,-0.2008 c -0.22129,-0.1832 -0.55232,-0.3289 -1.01382,-0.3289 z m 3.16101,0 c -0.42976,0 -0.78272,0.1134 -1.0736,0.2648 l 0.10264,0.2265 c 0.28457,-0.1518 0.57474,-0.2564 0.95393,-0.2564 0.58787,0 0.86403,0.2528 0.86403,0.88429 l 0,0.49129 c -0.23391,-0.1326 -0.57495,-0.2478 -0.97958,-0.2478 -0.65735,0 -1.24471,0.3354 -1.24471,1.06798 0,0.77659 0.55552,1.02099 1.09933,1.02099 0.48693,0 0.87193,-0.2461 1.12496,-0.56819 l 0,0.49979 0.27806,0 0,-2.29826 c 0,-0.79539 -0.40413,-1.08499 -1.12506,-1.08499 z m 10.73223,0 c -0.57524,0 -0.96675,0.3395 -0.96675,0.79459 0,0.49839 0.25413,0.68769 0.93682,0.97819 0.65114,0.27769 0.8469,0.46209 0.8469,0.80308 0,0.404 -0.29208,0.63649 -0.80415,0.63649 -0.36667,0 -0.66046,-0.1315 -0.91969,-0.34599 l -0.154,0.20079 c 0.31591,0.2462 0.63312,0.3845 1.06939,0.3845 0.60058,0 1.07359,-0.2972 1.07359,-0.88429 0,-0.53639 -0.31531,-0.74299 -0.96666,-1.02098 -0.62591,-0.2652 -0.80845,-0.41539 -0.80845,-0.76889 0,-0.29669 0.25033,-0.53829 0.68009,-0.53829 0.39201,0 0.64103,0.1138 0.86833,0.2905 l 0.1583,-0.2008 c -0.22089,-0.1832 -0.55252,-0.3289 -1.01372,-0.3289 z m -5.30839,0.068 1.20627,3.29785 -0.44057,1.18328 0.27806,0 1.66386,-4.48113 -0.29939,0 -1.05647,2.98175 -1.05227,-2.98175 -0.29949,0 z m 9.3933,0 0,2.03337 c 0,0.95328 0.47271,1.34988 1.18063,1.34988 0.49945,0 0.91329,-0.2173 1.05227,-0.62799 l 0,0.55969 0.27796,0 0,-3.31495 -0.27796,0 0,1.99067 c 0,0.85849 -0.51437,1.14908 -1.001,1.14908 -0.59437,0 -0.95384,-0.34959 -0.95384,-1.15768 l 0,-1.98207 -0.27806,0 z m -14.96253,1.52078 c 0.43626,0 0.73936,0.1025 0.99239,0.24769 l 0,0.76899 c -0.24022,0.3598 -0.6143,0.61939 -1.08221,0.61939 -0.46761,0 -0.86833,-0.22019 -0.86833,-0.80739 0,-0.54289 0.40193,-0.82868 0.95815,-0.82868 z m -7.72503,1.34138 c -0.13268,0 -0.23962,0.11969 -0.23962,0.25199 0,0.1326 0.10694,0.2392 0.23962,0.2392 0.12636,0 0.23951,-0.1066 0.23951,-0.2392 0,-0.1323 -0.11315,-0.25199 -0.23951,-0.25199 z m 1.33453,0 c -0.13257,0 -0.23951,0.11969 -0.23951,0.25199 0,0.1326 0.10694,0.2392 0.23951,0.2392 0.12646,0 0.23951,-0.1066 0.23951,-0.2392 0,-0.1323 -0.11305,-0.25199 -0.23951,-0.25199 z m 1.33453,0 c -0.13257,0 -0.23951,0.11969 -0.23951,0.25199 0,0.1326 0.10694,0.2392 0.23951,0.2392 0.12647,0 0.23961,-0.1066 0.23961,-0.2392 0,-0.1323 -0.11314,-0.25199 -0.23961,-0.25199 z" style="fill:#ffffff;fill-opacity:1;fill-rule:nonzero;stroke:none" />
  </g>
</svg>
