<?xml version="1.0" encoding="UTF-8" standalone="no"?>
<!-- Created with Inkscape (http://www.inkscape.org/) -->

<svg xmlns:dc="http://purl.org/dc/elements/1.1/" xmlns:cc="http://creativecommons.org/ns#" xmlns:rdf="http://www.w3.org/1999/02/22-rdf-syntax-ns#" xmlns:svg="http://www.w3.org/2000/svg" xmlns="http://www.w3.org/2000/svg" xmlns:sodipodi="http://sodipodi.sourceforge.net/DTD/sodipodi-0.dtd" xmlns:inkscape="http://www.inkscape.org/namespaces/inkscape" width="63" height="64" viewBox="0 0 63 64.000001" id="svg8337" version="1.1" inkscape:version="0.91 r13725" sodipodi:docname="logo-turquoise.svg">
  <defs id="defs8339" />
  <sodipodi:namedview id="base" pagecolor="#ffffff" bordercolor="#666666" borderopacity="1.0" inkscape:pageopacity="0.0" inkscape:pageshadow="2" inkscape:zoom="1.2359375" inkscape:cx="105.60266" inkscape:cy="-104.18205" inkscape:document-units="px" inkscape:current-layer="layer1" showgrid="false" units="px" fit-margin-top="2" fit-margin-right="2" fit-margin-bottom="2" fit-margin-left="2" inkscape:window-width="1863" inkscape:window-height="1053" inkscape:window-x="57" inkscape:window-y="27" inkscape:window-maximized="1" />
  <metadata id="metadata8342">
    <rdf:RDF>
      <cc:Work rdf:about="">
        <dc:format>image/svg+xml</dc:format>
        <dc:type rdf:resource="http://purl.org/dc/dcmitype/StillImage" />
        <dc:title></dc:title>
      </cc:Work>
    </rdf:RDF>
  </metadata>
  <g inkscape:label="Layer 1" inkscape:groupmode="layer" id="layer1" transform="translate(-121.3316,-364.18013)">
    <path style="fill:#1cafb0;fill-opacity:1;fill-rule:nonzero;stroke:none" d="m 164.13893,366.18019 c -2.16199,0 -4.34473,0.0488 -6.45568,0.0961 -1.94804,0.0435 -3.96208,0.0902 -5.94142,0.0961 -3.08532,0.009 -6.12448,0.23377 -9.06543,0.45176 -2.99808,0.22222 -6.09865,0.45176 -9.2412,0.45176 -0.5648,0 -1.08872,-0.003 -1.57476,-0.01 -1.22432,-0.0154 -2.31783,-0.14879 -3.28382,-0.26592 -0.80956,-0.0982 -1.50816,-0.18263 -2.13059,-0.18263 -2.26947,0 -3.11443,1.31233 -3.11443,4.84753 0,1.51817 0.39581,3.02272 0.77936,4.47589 0.37068,1.40434 0.75672,2.85381 0.75712,4.27084 l -0.0608,3.30966 0.27467,0.007 -0.27467,0.003 c 0,0.29297 0.01,0.58746 0.01,0.88108 l 0,0.01 c 0,0.88736 -0.0199,1.76614 -0.0419,2.69451 -0.0219,0.95079 -0.0449,1.93248 -0.0449,2.94762 l 0.27787,0 -0.27787,0.0289 c 0.001,1.92133 0.01,3.85752 0.01,5.76707 0,2.25069 0.01,4.46434 0.01,6.56484 l 0,0.007 c 0,2.41679 -0.01,4.31544 -0.0159,5.97852 l 0,0.0577 c 0,1.07319 0.19192,2.11343 0.37687,3.12062 0.18324,0.99757 0.37347,2.03104 0.37377,3.08539 1e-4,0.20492 -0.01,0.40548 -0.0219,0.60232 l 0.27467,0.0224 0,0.27554 c 0.86251,5.2e-4 1.77646,0.14867 2.78871,0.45175 4.55151,1.36333 11.95733,1.54725 17.91052,1.69487 1.38154,0.0341 2.68731,0.067 3.84274,0.11215 l 3.32848,-0.007 c 1.77297,0 3.37934,0.01 4.91601,0.0256 l 0.95513,0.01 c 1.94355,0.0187 3.95321,0.0373 5.98619,0.0833 0.40428,0.009 0.80817,0.01 1.21385,0.01 l 0.32263,0 0.3322,0.003 c 0.10758,0.001 0.21475,0.003 0.32263,0.003 0.0638,0 0.13041,-0.002 0.19481,-0.003 2.40766,-0.0347 4.77304,-0.31219 7.06265,-0.5831 2.32062,-0.27491 4.71981,-0.55942 7.14252,-0.58313 l 0,-0.27873 0.27467,-0.003 c -0.0269,-1.4615 -0.34207,-2.80227 -0.64526,-4.09782 -0.22024,-0.93991 -0.44556,-1.91275 -0.55264,-2.90276 -0.23928,-2.2116 -0.24606,-4.40591 -0.25234,-6.52961 0,-0.36844 0,-0.7296 -0.01,-1.08612 0,-0.62912 -0.01,-1.26991 -0.01,-1.91595 -0.01,-0.9176 -0.01,-1.84854 -0.016,-2.79062 l 0,-0.16981 c 0,-2.136 0.34586,-4.29416 0.68035,-6.37902 0.3351,-2.08986 0.68365,-4.24878 0.68365,-6.39505 l -0.27797,0 0.27478,-0.0353 -0.2683,-2.22673 c 0,-0.0365 0.01,-0.0933 0.01,-0.16019 0,-0.63976 -0.21714,-0.86493 -0.41844,-0.93555 l -0.27477,-0.4838 c -0.40887,-0.68409 -0.46799,-1.4929 -0.46959,-2.19469 l 0,-0.11213 -0.52063,0 0.52063,-0.01 c 0,-0.63412 0.12662,-1.25056 0.25872,-1.90313 0.0259,-0.12867 0.0519,-0.25901 0.0768,-0.38766 0.27258,-1.39987 0.40249,-2.55611 0.40249,-3.53715 0,-5.56457 -4.23765,-5.93085 -13.82182,-6.22522 -1.11335,-0.0342 -2.27585,-0.0513 -3.55201,-0.0513 z m 0,0.55428 c 1.27058,0 2.42531,0.0171 3.53297,0.0513 9.45077,0.2904 13.28703,0.61028 13.28833,5.67095 0,0.94489 -0.13031,2.06692 -0.39611,3.4314 -0.0249,0.12752 -0.0508,0.25388 -0.0768,0.38127 -0.13171,0.65065 -0.26829,1.32553 -0.26829,2.01526 l 0,0.12177 c 0,0.77727 0.0718,1.6791 0.54625,2.47343 l 0.41525,0.73049 0.13739,0 c 0.0229,0.04 0.0638,0.15942 0.0638,0.4101 0,0.0575 0,0.10636 0,0.13776 l 0,0.0448 0.4312,-0.016 -0.42801,0.0513 0.26829,2.22031 c 0,2.09691 -0.34327,4.22957 -0.67397,6.29252 -0.33798,2.10639 -0.68684,4.28532 -0.68684,6.46552 l 0,0.173 c 0.01,0.94133 0.012,1.87367 0.016,2.79063 0,0.6463 0.01,1.28644 0.01,1.91596 0,0.35576 0.01,0.71845 0.01,1.08612 0.01,2.03821 0.013,4.34709 0.25553,6.58727 0.11057,1.02412 0.34147,2.01386 0.5654,2.97005 0.27706,1.18315 0.56211,2.40243 0.61973,3.70053 -2.35561,0.0422 -4.67334,0.31706 -6.91888,0.58312 -2.27576,0.26925 -4.62898,0.54915 -7.00832,0.58311 l -0.18534,0 c -0.10588,0 -0.21027,-0.002 -0.31625,-0.003 l -0.33539,-0.003 -0.32582,0 c -0.40159,0 -0.80069,-5e-4 -1.20099,-0.01 -2.03647,-0.0457 -4.05061,-0.0645 -5.99576,-0.0833 l -0.95193,-0.01 c -1.53838,-0.0157 -3.14754,-0.0224 -4.9224,-0.0224 l -3.31572,0.003 c -1.14815,-0.0452 -2.45591,-0.0778 -3.83955,-0.11213 -5.92039,-0.14687 -13.28912,-0.33026 -17.77004,-1.67245 -0.95213,-0.28527 -1.82172,-0.43829 -2.65122,-0.46778 0,-0.11674 0.01,-0.234 0.01,-0.35242 -3e-4,-1.10484 -0.19561,-2.16291 -0.38335,-3.18471 -0.18893,-1.02806 -0.36729,-1.99861 -0.36729,-3.02129 l 0,-0.0544 c 0.01,-1.66426 0.0159,-3.56393 0.0159,-5.98174 l 0,-0.007 c -2e-4,-2.10101 0,-4.3139 -0.01,-6.56486 0,-1.90928 -0.01,-3.84779 -0.01,-5.79589 -2e-4,-1.00873 0.0229,-1.98721 0.0449,-2.9348 0.0209,-0.93183 0.0419,-1.81356 0.0419,-2.70731 l 0,-0.01 c 0,-0.29527 0,-0.58953 -0.01,-0.88428 l 0.0578,-3.30646 -0.27477,-0.007 0.27477,0 c 0,-1.48983 -0.39311,-2.97888 -0.77307,-4.41822 -0.37437,-1.41895 -0.76021,-2.88558 -0.76021,-4.3317 0,-3.63159 0.8631,-4.29647 2.56179,-4.29647 0.58933,0 1.27157,0.0833 2.06349,0.17942 0.97985,0.11867 2.09041,0.25336 3.34454,0.26914 0.48823,0.006 1.01395,0.0128 1.58114,0.0128 3.16289,0 6.27463,-0.22889 9.28268,-0.45176 2.93138,-0.21735 5.96146,-0.44239 9.02714,-0.45175 1.98483,-0.006 4.00016,-0.0526 5.95099,-0.0961 2.10806,-0.0472 4.2903,-0.0961 6.44621,-0.0961 z m -9.25386,3.24878 c 0,0.90325 0.01,1.82342 0.0189,2.76179 0.012,0.93887 0.0419,1.85904 0.0897,2.76178 0.0469,0.45163 0.0708,0.91555 0.0708,1.3905 l 0,1.42575 c 0,2.1383 -0.10618,4.25327 -0.31944,6.34377 -0.11884,1.23557 -0.34566,2.4487 -0.67726,3.63645 -0.332,1.18841 -0.76809,2.3517 -1.31285,3.49229 -0.26091,0.54685 -0.53369,1.01065 -0.81774,1.39051 -0.28424,0.38037 -0.6634,0.7114 -1.13718,0.99642 l 0,-0.0353 c -0.37906,0.16662 -0.76978,0.32181 -1.17227,0.46458 -0.40319,0.14239 -0.77058,0.21466 -1.10209,0.21466 -0.11894,0 -0.23619,-0.0116 -0.35453,-0.0353 -0.11884,-0.0236 -0.22512,-0.0496 -0.31944,-0.0737 -0.40309,-0.11867 -0.74057,-0.36615 -1.01255,-0.74653 -0.27268,-0.37984 -0.50389,-0.76046 -0.69322,-1.14059 -0.23698,-0.59362 -0.43399,-1.23619 -0.58773,-1.92555 -0.15453,-0.68885 -0.25304,-1.32028 -0.30029,-1.89031 -0.0708,-0.64157 -0.10858,-1.35284 -0.10858,-2.13702 l 0,-0.49982 c -0.0239,-0.45099 -0.0469,-0.9194 -0.0708,-1.40653 -0.0239,-0.48686 -0.0847,-0.94362 -0.17886,-1.37128 -0.11884,-0.64156 -0.18743,-1.28401 -0.21086,-1.92556 -0.0239,-0.64167 -0.0379,-1.27208 -0.0379,-1.89031 l 0,-0.42613 c 0,-0.59363 0.01,-1.1948 0.0189,-1.80061 0.012,-0.6058 0.0189,-1.21762 0.0189,-1.83584 0,-0.21377 0,-0.49148 0.016,-0.83622 0.012,-0.3441 0.0189,-0.62554 0.0189,-0.83943 0.0229,-0.57031 0.0389,-1.182 0.0508,-1.83586 0.012,-0.65309 0.0189,-1.26221 0.0189,-1.83265 l -0.71235,0 c 0,0.57044 0,1.19841 -0.016,1.88713 -0.012,0.68935 -0.0309,1.35449 -0.0548,1.99604 0,0.19032 0,0.43368 -0.016,0.73049 -0.012,0.29732 -0.0189,0.5407 -0.0189,0.7305 -0.0239,0.61822 -0.0429,1.23004 -0.0538,1.83584 -0.012,0.60581 -0.016,1.20698 -0.016,1.80061 l 0,0.42613 c 0,0.71281 0.019,1.38973 0.0538,2.0313 0.0359,0.64141 0.12293,1.29604 0.2652,1.96078 0.0947,0.49905 0.15494,1.01629 0.17887,1.55071 0.0229,0.5348 0.0469,1.05166 0.0708,1.55071 0,0.11918 0,0.24452 0.016,0.37485 0.012,0.13085 0.0189,0.25619 0.0189,0.37487 0,0.21389 0.01,0.45008 0.0189,0.71126 0.012,0.2617 0.0269,0.4975 0.0508,0.71128 0.0469,0.66551 0.14217,1.38012 0.28424,2.14021 0.14227,0.76074 0.33151,1.41447 0.56859,1.96081 l 0,-0.0353 c 0.18943,0.49905 0.45075,0.9558 0.78265,1.37128 0.3314,0.41612 0.74516,0.72011 1.24256,0.90991 l 0.0738,0 c 0.30757,0.1192 0.63798,0.17622 0.99351,0.17622 0.47347,0 0.9285,-0.0834 1.36709,-0.2499 0.43788,-0.16598 0.84745,-0.36769 1.22661,-0.60554 l 0,0.0353 c 0.63957,-0.30835 1.12072,-0.66283 1.44066,-1.06691 0.31994,-0.40394 0.61994,-0.9167 0.90398,-1.53469 0.52093,-1.06946 0.96051,-2.25594 1.31604,-3.56275 0.35523,-1.30657 0.59013,-2.60339 0.70917,-3.88637 0.0947,-1.02129 0.17378,-2.08985 0.2332,-3.20712 0.0588,-1.11651 0.0857,-2.17406 0.0857,-3.1719 l 0,-1.42575 c 0,-0.52223 -0.0229,-0.98617 -0.0708,-1.39049 -0.0478,-0.90274 -0.0778,-1.82292 -0.0897,-2.76179 -0.012,-0.93837 -0.016,-1.85853 -0.016,-2.76178 l -0.74745,0 z m 16.06098,0.10893 c -0.0947,0.38037 -0.15254,0.71127 -0.17567,0.99643 -0.0239,0.28514 -0.0389,0.53582 -0.0389,0.74972 0,0.33308 0.0149,0.65987 0.0389,0.9804 0.0229,0.3209 0.0578,0.64476 0.10538,0.9772 0.0708,0.68935 0.10549,1.35461 0.10549,1.99603 l 0,0.14419 c 0,0.52313 0.01,1.05152 0.0189,1.58593 0.012,0.53467 0.0269,1.07486 0.0508,1.62119 0.0239,0.33308 0.0419,0.69026 0.0548,1.07013 0.012,0.38023 0.0189,0.76073 0.0189,1.14059 0.0229,0.21389 0.0349,0.42023 0.0349,0.62155 l 0,0.58952 c 0,0.92646 -0.0229,1.83561 -0.0708,2.72656 -0.0479,0.89107 -0.11974,1.78868 -0.21405,2.69129 -0.0957,0.87941 -0.15573,1.77703 -0.17886,2.69131 -0.0239,0.91503 -0.0349,1.82392 -0.0349,2.72653 l 0,0.21147 c -0.35523,-0.83162 -0.68604,-1.63825 -0.99351,-2.42218 -0.30797,-0.7842 -0.62991,-1.6053 -0.96141,-2.46062 -0.11884,-0.26118 -0.22861,-0.53197 -0.33539,-0.817 -0.10648,-0.28515 -0.22034,-0.5817 -0.33868,-0.89069 -0.30797,-0.7842 -0.62233,-1.57453 -0.94227,-2.3709 -0.31973,-0.79586 -0.64625,-1.58696 -0.97745,-2.37091 -0.23729,-0.45124 -0.47248,-0.95693 -0.70917,-1.51546 -0.23719,-0.55799 -0.48724,-1.13278 -0.74745,-1.72691 l 0,0.0353 c -0.30847,-0.78394 -0.62672,-1.58658 -0.95832,-2.40615 -0.3321,-0.81969 -0.62771,-1.50366 -0.88803,-2.05051 -0.0478,-0.0947 -0.11944,-0.2244 -0.21395,-0.39088 -0.0947,-0.16596 -0.2012,-0.34448 -0.31944,-0.53506 l 0.0349,0.0353 -0.14377,-0.32039 c -0.11854,-0.19006 -0.24077,-0.41049 -0.37058,-0.66001 -0.13041,-0.24952 -0.24427,-0.48136 -0.33858,-0.69526 0,-0.0472 -0.0229,-0.11636 -0.0708,-0.21145 l 0,0.0353 c -0.0947,-0.26131 -0.22742,-0.54621 -0.39282,-0.85545 -0.166,-0.30848 -0.41305,-0.47598 -0.74436,-0.49981 l -0.35453,0.0353 c -0.0947,1.78202 -0.1669,3.36412 -0.21406,4.74181 -0.0479,1.37832 -0.0708,2.6713 -0.0708,3.88316 l 0,5.31211 c 0,0.49903 -0.01,1.07383 -0.0189,1.72691 -0.012,0.654 -0.0419,1.25429 -0.0897,1.80062 -0.0239,0.14237 -0.0399,0.28361 -0.0508,0.42612 -0.012,0.14264 -0.0429,0.30987 -0.0897,0.49981 -0.0479,0.19044 -0.0858,0.41048 -0.10858,0.66 -0.0239,0.24954 -0.0469,0.54211 -0.0698,0.87468 -0.0239,0.33295 -0.0429,0.6527 -0.0548,0.96117 -0.012,0.30899 -0.016,0.62901 -0.016,0.96119 0,0.47584 0.0229,1.01153 0.0708,1.60516 0.0469,0.59427 0.13021,1.16456 0.24915,1.7109 l 0.74745,-0.0353 c -0.11914,-0.54633 -0.20169,-1.11228 -0.24915,-1.69488 -0.0478,-0.58171 -0.0738,-1.11011 -0.0738,-1.58595 0,-0.33218 0.01,-0.6522 0.0189,-0.96118 0.012,-0.30847 0.0309,-0.62823 0.0538,-0.96118 0,-0.14251 0.011,-0.3282 0.0349,-0.55427 0.0239,-0.22568 0.0578,-0.43419 0.10538,-0.62477 0.0469,-0.18979 0.0768,-0.39178 0.0897,-0.60555 0.012,-0.21388 0.0309,-0.41521 0.0538,-0.60553 0.0229,-0.64143 0.0389,-1.26529 0.0509,-1.8711 0.012,-0.6058 0.0189,-1.18007 0.0189,-1.72691 l 0,-5.31211 c 0,-1.25914 0.0189,-2.49509 0.0538,-3.70694 0.0359,-1.21173 0.11117,-2.42166 0.23001,-3.63325 l 0.10548,0.35562 0.17886,0.49982 c 0.0947,0.16647 0.2006,0.345 0.31944,0.53506 0.11835,0.19031 0.23529,0.37704 0.35454,0.5671 l 0.56858,1.17903 c 0.28445,0.54686 0.53799,1.09088 0.76341,1.63721 0.22492,0.54685 0.44526,1.11727 0.65812,1.7109 0.0947,0.28501 0.22672,0.59375 0.39292,0.92593 0.26021,0.59427 0.51435,1.19122 0.7634,1.78459 0.24855,0.59427 0.49112,1.12701 0.72831,1.60197 0.42632,0.99808 0.82861,1.97195 1.20747,2.92197 0.37896,0.95068 0.76908,1.92736 1.17227,2.92519 0.37846,0.92671 0.75343,1.85866 1.12123,2.79702 0.36709,0.93915 0.73847,1.87033 1.11803,2.79704 l 0.31934,0.64079 c 0.0469,0.11919 0.12363,0.28604 0.23001,0.4998 0.10658,0.2139 0.18534,0.34359 0.2332,0.39089 l 0.0708,0.14418 0.56859,0 c -0.0239,-0.35628 -0.0349,-0.74819 -0.0349,-1.17586 l 0,-1.17583 c 0,-0.90262 0.011,-1.8115 0.0349,-2.72655 0.0239,-0.91426 0.0838,-1.81188 0.17887,-2.69129 0.0708,-0.90261 0.13559,-1.80023 0.19491,-2.69129 0.0588,-0.89096 0.0897,-1.8001 0.0897,-2.72656 l 0,-0.57029 c 0,-0.23709 -0.015,-0.45022 -0.0379,-0.64079 l -0.0708,-1.46099 c -0.0479,-0.64181 -0.0778,-1.30285 -0.0897,-1.98003 -0.012,-0.67679 -0.016,-1.33527 -0.016,-1.97682 l 0,-0.14417 c -1e-4,-0.18967 -0.01,-0.40728 -0.0189,-0.65681 -0.013,-0.24952 -0.0279,-0.46968 -0.0508,-0.66 0,-0.11868 -0.01,-0.2326 -0.0189,-0.33963 -0.012,-0.10676 -0.0189,-0.22042 -0.0189,-0.3396 -0.0708,-0.66501 -0.10548,-1.31618 -0.10548,-1.9576 0,-0.2139 0.012,-0.45715 0.0349,-0.7305 0.0239,-0.27273 0.0837,-0.60004 0.17896,-0.9804 l -0.74755,-0.0353 z m -32.9046,0.49661 c -0.28425,0 -0.54995,0.0188 -0.7986,0.0544 -0.24885,0.0359 -0.50299,0.0773 -0.7635,0.12495 -0.99491,0.21376 -1.77616,0.64002 -2.34455,1.28157 -0.56849,0.64143 -0.84167,1.44024 -0.81784,2.39014 0,0.38036 0.0339,0.74907 0.10548,1.10535 0.18933,0.9745 0.52233,1.95233 0.9966,2.938 0.47358,0.98617 0.94745,1.89493 1.42143,2.72653 0.0469,0.071 0.0927,0.17802 0.14057,0.3204 0.0469,0.14277 0.0588,0.20339 0.0349,0.17943 0.11824,0.11918 0.24337,0.27477 0.37377,0.46455 0.12991,0.19058 0.27807,0.3918 0.44397,0.60555 l 0.53349,0.6408 0.10858,0.14096 c 0.11834,0.11931 0.24008,0.2977 0.37058,0.53506 0.12991,0.2376 0.25474,0.48853 0.37368,0.74972 l 0.10867,0.2499 c 0.0229,0.0479 0.0618,0.11239 0.12134,0.19545 0.0588,0.0836 0.12701,0.17134 0.1981,0.26592 0.3314,0.76074 0.64257,1.58569 0.93908,2.47663 0.29591,0.89109 0.44406,1.73077 0.44406,2.51508 0,0.68936 -0.19003,1.37014 -0.56859,2.04731 -0.37926,0.67719 -0.97098,1.21762 -1.77606,1.6212 -0.63967,0.26169 -1.20836,0.39408 -1.70576,0.39408 -0.11885,0 -0.22503,-0.0115 -0.31944,-0.0353 -0.3321,-0.0234 -0.61625,-0.12968 -0.85294,-0.32038 -0.23698,-0.18968 -0.43818,-0.40614 -0.60368,-0.64398 -0.3321,-0.40396 -0.60887,-0.83752 -0.83369,-1.30081 -0.22533,-0.46341 -0.36172,-0.9654 -0.40887,-1.51226 -0.0239,-0.0472 -0.0349,-0.0964 -0.0349,-0.14416 0,-0.0472 0,-0.082 0.0159,-0.10574 0.012,-0.0236 0.019,-0.061 0.019,-0.10894 l 0,-0.60554 -0.71236,0 0,0.60554 c 0,0.0479 -0.01,0.0854 -0.0159,0.10894 -0.012,0.0237 -0.019,0.0585 -0.019,0.10574 l 0,0.21466 c 0,0.0714 0.011,0.13187 0.0349,0.17942 0.0469,0.47547 0.20648,0.97758 0.47916,1.51225 0.27198,0.53454 0.57527,1.01744 0.90717,1.44497 0.18933,0.2617 0.45054,0.52801 0.78264,0.80099 0.33141,0.27335 0.6989,0.43316 1.10199,0.48059 0.0469,0.0239 0.12343,0.0353 0.23001,0.0353 l 0.23001,0 c 0.75791,0 1.44405,-0.14098 2.0603,-0.42612 1.01833,-0.42765 1.73069,-1.03552 2.13378,-1.81983 0.40249,-0.78394 0.60378,-1.62478 0.60378,-2.52791 0,-0.9267 -0.15563,-1.8543 -0.46321,-2.781 -0.30817,-0.9267 -0.66121,-1.77037 -1.0637,-2.53109 l 0,0.0353 -0.17886,-0.53184 c -0.0708,-0.16597 -0.17726,-0.36321 -0.31944,-0.58953 -0.14217,-0.22542 -0.38075,-0.57543 -0.71235,-1.05089 l -0.49511,-0.64078 -0.0349,-0.0737 c -0.37926,-0.37974 -0.65224,-0.73384 -0.81774,-1.06691 l -0.31944,-0.60555 0.0349,0 c -0.40309,-0.78419 -0.81944,-1.66553 -1.24575,-2.64004 -0.42642,-0.97398 -0.75693,-1.87531 -0.99352,-2.70732 0,-0.0472 -0.01,-0.0892 -0.0189,-0.12495 -0.012,-0.0354 -0.016,-0.0771 -0.016,-0.12495 -0.0239,-0.11868 -0.0429,-0.24413 -0.0538,-0.37485 -0.012,-0.13035 -0.016,-0.22979 -0.016,-0.30117 0,-0.71295 0.24257,-1.33194 0.72831,-1.85508 0.48524,-0.52225 1.10707,-0.87942 1.86549,-1.07011 0.52073,-0.11855 0.98015,-0.17622 1.38313,-0.17622 0.23649,0 0.48644,0.0344 0.74746,0.10573 0.26041,0.071 0.51046,0.15519 0.74755,0.24991 0.14217,0.0713 0.29381,0.16225 0.45991,0.26913 0.16541,0.107 0.32493,0.2253 0.47916,0.35563 0.15404,0.13085 0.27886,0.26733 0.37378,0.41011 0.0947,0.14238 0.1318,0.28335 0.10857,0.42612 l 0.77946,0 c 0,-0.54634 -0.21256,-0.98374 -0.63888,-1.31681 -0.42642,-0.33245 -0.81704,-0.5944 -1.17238,-0.78497 l -0.0708,-0.0705 c -0.49751,-0.26142 -1.10348,-0.39408 -1.81434,-0.39408 z m 10.46451,29.51138 c -0.0389,0 -0.0748,0.003 -0.11495,0.01 -0.0299,0.005 -0.0568,0.007 -0.0768,0.007 -0.0618,0 -0.11735,0.003 -0.1661,0.01 -0.12074,0.0154 -0.28265,0.007 -0.46002,0.016 -0.11345,0.006 -0.21166,0.0178 -0.28743,0.0289 l -0.37059,0.016 c -0.22651,0.0232 -0.4643,0.0428 -0.70597,0.0544 l -0.70588,0.032 -0.15653,0 c -0.12751,0 -0.25224,-3.7e-4 -0.37377,-0.007 -0.12154,-0.006 -0.24656,-0.0139 -0.38006,-0.0256 l -0.10548,0 c -6e-4,0 -0.01,-0.001 -0.0219,-0.007 -0.0249,-0.008 -0.0478,-0.0123 -0.0578,-0.0128 -0.0867,-0.0119 -0.17867,-0.016 -0.27787,-0.016 l -0.23639,0 c -0.0359,0 -0.0927,6.3e-4 -0.1661,0.007 -0.0708,0.006 -0.24536,0.029 -0.52711,0.0641 l -0.0608,0.007 0.019,0.75613 0.0768,-0.0128 c 0.29721,-0.0425 0.42582,-0.0566 0.47916,-0.0608 0.0738,-0.005 0.1333,-0.007 0.17887,-0.007 0.10408,0 0.21385,6.3e-4 0.32901,0.007 0.11325,0.006 0.2309,0.0145 0.36101,0.0256 0.0239,0.016 0.0538,0.0193 0.0798,0.0193 l 0.0768,0 c 0.0967,0.0119 0.20737,0.0192 0.32582,0.0192 l 0.35134,0 0,0.46137 c -0.013,0.0733 -0.0189,0.16263 -0.0189,0.26594 l 0,1.09894 c 0,0.0277 0,0.0587 0.0189,0.0801 -10e-5,0.23132 0,0.48648 -0.01,0.76894 -0.01,0.28631 -0.014,0.54788 -0.0259,0.78176 -0.012,0.24618 -0.0199,0.49327 -0.0259,0.7401 -0.01,0.24633 -0.01,0.50238 -0.01,0.77215 0,0.32937 -0.01,0.67437 -0.0189,1.02526 -0.012,0.34872 -0.0279,0.69538 -0.0508,1.03166 0,0.0454 0,0.0988 -0.01,0.1602 -0.01,0.0667 -0.01,0.12842 -0.01,0.18903 l 0,0.33 c -0.012,0.22364 -0.0229,0.44688 -0.0289,0.66963 -0.01,0.22325 -0.01,0.45419 -0.01,0.68883 l 0,0.46458 c 0,0.1479 0,0.28913 0.016,0.41971 0.012,0.11432 0.0199,0.25825 0.0259,0.42613 0.01,0.16954 0.01,0.3446 0.01,0.52543 l 0,1.02528 0.73479,0 0,-0.974 c 0,-0.18199 0,-0.36512 -0.01,-0.54789 -0.01,-0.17903 -0.014,-0.33512 -0.0259,-0.46136 l 0,-0.50941 c 0,-0.0479 0,-0.0772 -0.016,-0.0993 0,-2.6e-4 0,-0.009 0,-0.0256 l 0,-0.2435 c 0,-0.33922 0.01,-0.68371 0.0189,-1.01884 0.011,-0.33256 0.0279,-0.67347 0.0508,-1.01565 0.0239,-0.34333 0.0399,-0.68871 0.0508,-1.02846 0.012,-0.35256 0.0189,-0.70077 0.0189,-1.03167 0,-0.26861 0,-0.52378 0.01,-0.76894 0.01,-0.24567 0.014,-0.49136 0.0259,-0.73691 0.011,-0.27001 0.0199,-0.53236 0.0259,-0.78496 0.01,-0.25207 0.01,-0.49557 0.01,-0.73049 0,-0.047 -0.01,-0.0771 -0.016,-0.0993 -2e-4,0 0,-0.005 0,-0.0224 l 0,-1.09895 c 0,-0.0616 0.01,-0.13867 0.0189,-0.2371 l 0,-0.40369 c 0,-0.0376 0,-0.0753 0.01,-0.11214 l 1.07008,-0.0993 c 0.11416,-0.0115 0.27966,-0.0235 0.50468,-0.0353 0.22612,-0.0116 0.39571,-0.016 0.52063,-0.016 l 0.14058,0 c 0.0259,0 0.0598,-0.003 0.10538,-0.01 0.0369,-0.005 0.0658,-0.01 0.0867,-0.01 l 0.0708,0 -0.0189,-0.73368 -0.26191,0 z m -10.62742,0.0513 0,0.17621 c 0,0.0179 0,0.0337 -0.01,0.0513 -0.01,0.0287 -0.01,0.0524 -0.01,0.0705 l 0,0.0705 c 0,0.0579 0,0.1443 -0.01,0.25952 -0.01,0.11841 -0.01,0.24119 -0.01,0.36524 l 0,0.63438 -0.10549,1.1406 c -0.012,0.10726 -0.016,0.20863 -0.016,0.30437 l 0,0.80418 -0.0189,0.2499 c 0,0.1311 0.01,0.28208 0.0189,0.44535 0.011,0.16405 0.0279,0.31476 0.0508,0.44215 l 0.0708,0.64078 0,0.66642 c 0,0.0503 0.01,0.0801 0.0189,0.10573 l 0,0.21146 c 0,0.0181 0,0.0374 -0.01,0.0544 -0.01,0.0281 -0.013,0.0565 -0.013,0.0865 l 0,0.60875 c -0.012,0.1384 -0.016,0.29668 -0.016,0.47097 l 0,1.04448 c 0,0.36307 0,0.72704 -0.01,1.09575 -0.01,0.36946 -0.0279,0.73793 -0.0608,1.08292 l -0.0189,0.0865 0,0.0833 c -0.012,0.13009 -0.016,0.2562 -0.016,0.37486 l 0,0.81701 c 0,0.0112 -0.01,0.0392 -0.0319,0.10574 l -0.0259,0.49981 0.40568,0 c 0.0887,0 0.17278,-0.0127 0.24915,-0.0385 0.0289,-0.009 0.0568,-0.016 0.0828,-0.016 l 1.2618,0 c 0.017,0 0.0239,0.003 0.0219,0.003 0.0209,0.0112 0.0409,0.016 0.0638,0.016 l 0.44078,0 c 0.20997,0 0.45812,-0.008 0.73788,-0.0192 0.27597,-0.0115 0.52811,-0.0277 0.74755,-0.0513 l 0.21077,0 c 0.0439,0 0.0768,-0.004 0.10219,-0.0128 0.0149,-0.005 0.0219,-0.005 0.0349,-0.007 0.0558,-0.0109 0.12343,-0.016 0.20449,-0.016 l 0.37686,0 0,-0.7369 -0.3322,0 c -0.0339,0 -0.0628,0.007 -0.0897,0.0192 l -0.61006,0 c -0.0279,0 -0.0498,0.007 -0.0638,0.016 l -0.0867,0 c -0.21774,0.0232 -0.42711,0.0353 -0.62292,0.0353 l -2.36379,0 0,-0.26271 c 0,-0.10497 0,-0.2412 0.01,-0.4101 0.01,-0.16841 0.014,-0.32013 0.0259,-0.44856 0.0229,-0.37062 0.0389,-0.74651 0.0449,-1.11817 0.01,-0.36934 0.01,-0.73536 0.01,-1.09894 l 0,-1.02846 c 0,-0.16674 0.01,-0.31898 0.0189,-0.45816 l 0.016,-0.26913 0,-0.72088 c 0,-0.0268 -0.01,-0.0463 -0.016,-0.0609 l 0,-0.64079 c 0.0329,0 0.0588,-0.009 0.0768,-0.0192 0.0249,-0.002 0.0459,-0.009 0.0738,-0.0193 0.21526,-0.0344 0.4015,-0.0511 0.55583,-0.0513 l 0.94227,-0.0705 0.52392,0 c 0.0608,0 0.12313,0.008 0.18524,0.0224 l 0.01,0.007 c 0.0588,0.03 0.12882,0.0388 0.19811,0.0319 0.0558,-0.005 0.10967,-0.007 0.1661,-0.007 l 0.85602,0 0.0219,-0.7369 -0.7986,0 c -0.11825,0 -0.21834,-0.003 -0.28744,-0.0128 -0.0877,-0.025 -0.18992,-0.0385 -0.30667,-0.0385 l -0.57497,0 -0.94237,0.0705 c -0.0947,0 -0.198,5.1e-4 -0.30987,0.007 -0.11056,0.006 -0.20887,0.0176 -0.28424,0.0289 -0.0429,0 -0.0838,0.007 -0.12134,0.0224 -0.01,0.003 -0.017,0.005 -0.0259,0.007 -0.0429,-0.12623 -0.0638,-0.25272 -0.0638,-0.37486 l 0,-0.64078 c 0,-0.0344 0,-0.0974 0.01,-0.18903 0.01,-0.095 0.01,-0.20224 0.01,-0.32681 l 0,-0.63757 0.0538,-0.62476 c 0.0239,-0.14572 0.0349,-0.26684 0.0349,-0.36527 l 0,-0.67602 c 0,-0.12175 0,-0.24836 0.013,-0.38126 l 0.98703,0.003 c 0.1981,0 0.42821,0.004 0.6963,0.01 0.2664,0.006 0.51306,0.0193 0.72831,0.0416 0.0818,0.0122 0.18425,0.0229 0.30349,0.0289 0.11804,0.006 0.22452,0.01 0.31944,0.01 l 0.0638,0 0.67078,0.0513 0.2971,0 c 0.0538,0 0.10479,-0.008 0.14686,-0.0224 l 0.0449,-0.0128 0,-0.77214 -0.50468,0.0193 -0.10539,0 c -0.0997,0 -0.16999,-0.003 -0.22362,-0.016 l -0.98065,-0.0544 c -0.24686,-0.0116 -0.49781,-0.016 -0.74107,-0.016 l -1.67058,0 c -0.017,-0.0114 -0.0389,-0.0193 -0.0608,-0.0193 l -0.64844,0 z m 16.79886,0.0544 c -0.26949,0.014 -0.52273,0.0778 -0.75384,0.18904 -0.25872,0.12354 -0.51415,0.27079 -0.76021,0.43572 -0.30598,0.20032 -0.60847,0.45817 -0.8977,0.76575 -0.28753,0.30629 -0.54047,0.61489 -0.75064,0.91953 l -0.33858,0.47738 c -0.12532,0.15275 -0.2328,0.32397 -0.32263,0.50941 -0.10997,0.22582 -0.21994,0.45869 -0.32582,0.69525 -0.1649,0.37769 -0.29142,0.7983 -0.37378,1.25275 -0.0817,0.45316 -0.12133,0.91159 -0.12133,1.35846 0,0.26977 0.01,0.50827 0.0259,0.71448 0.018,0.20595 0.0369,0.40998 0.0608,0.61195 0.0469,0.30437 0.10837,0.60579 0.17886,0.8939 0.0708,0.29091 0.14686,0.57285 0.22682,0.83622 0.0718,0.26349 0.19292,0.54479 0.35772,0.83943 0.1346,0.24106 0.28584,0.45381 0.45364,0.63438 l 0.28424,0.3396 c 0.0728,0.0982 0.17607,0.20493 0.31625,0.32682 0.13529,0.11841 0.2673,0.21607 0.39292,0.29154 l 0.55583,0.27875 0.15334,0.0865 c 0.10777,0.0721 0.23419,0.14544 0.37367,0.22107 0.14696,0.0798 0.30807,0.1329 0.47597,0.15699 l 0.26201,0.0481 c 0.0249,0.0178 0.0498,0.0223 0.0668,0.0223 l 0.0349,0 c 0.0957,0.0243 0.20239,0.042 0.32581,0.0545 0.12094,0.0119 0.21207,0.016 0.28425,0.016 l 0.10538,0 c 0.0538,0 0.10229,-0.005 0.13101,-0.016 0.0917,-0.0115 0.17736,-0.0228 0.25234,-0.0289 0.0817,-0.006 0.14307,-0.0212 0.18843,-0.0481 l 0.18534,-0.0513 c 0.11665,-0.0352 0.23849,-0.0711 0.3673,-0.11213 0.12851,-0.0409 0.23609,-0.0797 0.31944,-0.11535 l 0.25872,-0.10572 c 0.24466,-0.0585 0.47507,-0.12931 0.68045,-0.21147 0.21057,-0.0846 0.41904,-0.22068 0.62602,-0.40368 0.27218,-0.27298 0.48694,-0.55686 0.63569,-0.84906 0.14606,-0.28707 0.28504,-0.56952 0.41525,-0.84263 l 0.0578,-0.15698 0,0.11854 0.1342,-0.47738 c 0.0239,-0.0819 0.0508,-0.17929 0.0798,-0.29157 0.0289,-0.11136 0.0568,-0.21349 0.0798,-0.30437 l 0.0479,-0.1634 0.0189,-0.0385 c 0.0379,-0.0892 0.0678,-0.2594 0.0927,-0.52865 l 0.0508,-0.36204 c 0.0349,-0.15175 0.0628,-0.29964 0.0867,-0.44215 0.0239,-0.1416 0.0349,-0.30617 0.0349,-0.48699 l 0,-0.2467 c 0,-0.18712 -0.0369,-0.34578 -0.11176,-0.47099 l -0.14058,-0.26592 -0.0419,0 c -0.11805,0 -0.22463,0.007 -0.31625,0.0193 -0.0907,0.0124 -0.15932,0.0233 -0.20758,0.0353 -0.0419,0.0104 -0.0907,0.016 -0.14376,0.016 l -1.26819,0 -0.4983,-0.0513 c -0.0568,0 -0.12163,-0.005 -0.19162,-0.016 -0.0808,-0.0125 -0.15145,-0.0223 -0.19811,-0.0193 -0.0628,-0.0125 -0.14596,-0.0193 -0.24277,-0.0193 l -1.15313,0 0,0.75612 0.61017,0 c 0.0499,0 0.0798,-0.006 0.10538,-0.0193 l 0.42163,0 c 0.0638,0 0.1319,0.007 0.21087,0.0193 0,0 0.01,-0.002 0.0219,0.003 0.0239,0.008 0.0439,0.01 0.0578,0.0128 l 0.67397,0.0673 0.0867,0.0193 1.44385,0 c 0.0608,0 0.11316,-0.003 0.15005,-0.01 l 0,0.1698 c 0,0.12432 0,0.2394 -0.016,0.34282 -0.012,0.1001 -0.0469,0.23247 -0.10219,0.38768 -0.0269,0.0656 -0.0419,0.14802 -0.0479,0.25631 -0.01,0.0984 -0.014,0.19429 -0.0259,0.29476 l 0,0.0961 c -0.01,0.0116 -0.017,0.0302 -0.0189,0.0513 -0.012,0.0394 -0.016,0.0841 -0.016,0.13456 l 0,0.10894 c -0.0249,0.0246 -0.0359,0.0506 -0.0389,0.0705 -0.0229,0.0682 -0.0548,0.1543 -0.0987,0.25952 -0.0479,0.11379 -0.0847,0.22132 -0.10538,0.30757 l -0.21087,0.49021 -0.01,0.0224 c 0,2.7e-4 -6e-4,0.008 -0.01,0.0256 -0.014,0.028 -0.0229,0.0576 -0.0259,0.0865 -0.10249,0.22761 -0.22473,0.4779 -0.3673,0.74651 -0.14317,0.2699 -0.28504,0.48264 -0.41206,0.62157 -0.11056,0.0887 -0.25523,0.16659 -0.43449,0.23388 -0.18624,0.0701 -0.37148,0.13302 -0.54935,0.18904 -0.0219,0.002 -0.0389,0.0107 -0.0508,0.0224 -0.0638,0.0214 -0.13799,0.0412 -0.22044,0.0576 -0.0967,0.0195 -0.1673,0.0439 -0.2013,0.0673 -0.12283,0.056 -0.29202,0.11328 -0.50468,0.1698 l -0.0798,0 -0.0259,0.003 c -0.1312,0.0551 -0.30688,0.0915 -0.52063,0.10252 l -0.0479,0.016 c -0.10917,-10e-4 -0.24696,-0.0174 -0.42163,-0.0513 -0.016,0 -0.0289,-0.002 -0.0419,-0.007 -0.0249,-0.008 -0.0498,-0.0128 -0.0798,-0.0128 l -0.32263,-0.0705 c -0.19901,-0.0331 -0.37527,-0.10381 -0.53031,-0.21466 -0.18704,-0.12892 -0.33988,-0.23107 -0.45682,-0.30757 -0.11725,-0.0765 -0.22712,-0.14111 -0.32901,-0.19225 -0.10888,-0.0432 -0.2021,-0.098 -0.27787,-0.1634 -0.0808,-0.0689 -0.15025,-0.13149 -0.20448,-0.18581 l -0.26192,-0.30119 c -0.15902,-0.17032 -0.2988,-0.36679 -0.41206,-0.5831 -0.11316,-0.21518 -0.1976,-0.44471 -0.25553,-0.68886 -0.0808,-0.2663 -0.15732,-0.5444 -0.22681,-0.8234 -0.0708,-0.28131 -0.13081,-0.55697 -0.17568,-0.817 -0.0229,-0.18083 -0.0429,-0.38127 -0.0608,-0.61196 -0.017,-0.22004 -0.0259,-0.41676 -0.0259,-0.58952 0,-0.36895 0.0369,-0.75138 0.11186,-1.13098 0.0748,-0.37999 0.19531,-0.75793 0.35772,-1.131 0.0927,-0.26629 0.1988,-0.51724 0.31306,-0.7465 0.11426,-0.22953 0.23011,-0.42663 0.34177,-0.58311 l 0.35454,-0.43254 -0.01,0 0.0897,-0.0961 c 0.20328,-0.25194 0.40368,-0.49224 0.59421,-0.71127 0.19192,-0.22107 0.42681,-0.41267 0.6963,-0.5703 l 0.14377,-0.0737 c 0.15713,-0.0903 0.32532,-0.17672 0.50149,-0.25951 0.1661,-0.0773 0.34347,-0.11534 0.53031,-0.11534 0.27547,0 0.56051,0.025 0.84645,0.0769 0.28714,0.0515 0.57397,0.11444 0.84645,0.18262 l 0.37378,0.13457 0.0768,0.0448 c 0.0459,0.0538 0.11575,0.0831 0.20448,0.0865 l 0.17567,0.0961 c 0.0598,0.036 0.11177,0.0638 0.15653,0.0833 0.0319,0.0134 0.0568,0.029 0.0708,0.0416 l 0.10538,0.12497 0.0219,0.016 c 0.0917,0.0463 0.17088,0.0882 0.23958,0.12816 0.0688,0.0405 0.13858,0.0855 0.20767,0.13137 l 0.21077,0.17941 0,-0.01 c 0.0499,0.0478 0.0987,0.0952 0.14377,0.14417 0.0698,0.0751 0.10538,0.16712 0.10538,0.27873 l 0,0.0705 0.76031,-0.0224 -0.01,-0.0769 c -0.0359,-0.27735 -0.0977,-0.4824 -0.18534,-0.61516 -0.0848,-0.12752 -0.17268,-0.23055 -0.25872,-0.30437 l -0.14058,-0.12495 -0.0159,-0.01 c -0.0219,-0.0106 -0.0469,-0.0224 -0.0738,-0.0385 -0.0309,-0.019 -0.0568,-0.0365 -0.0738,-0.0448 l -0.99022,-0.66962 c -0.0508,-0.025 -0.10997,-0.0496 -0.18205,-0.0737 -0.0827,-0.0276 -0.10967,-0.049 -0.11496,-0.0544 l 0,-0.016 -0.0289,0 -0.01,-0.0193 -0.0319,0 -0.013,-0.01 c -0.0429,-0.0253 -0.0937,-0.0538 -0.15334,-0.0833 l 0.016,0 -0.0479,-0.016 c -0.013,-0.006 -0.0249,-0.0128 -0.0379,-0.0193 -0.0808,-0.0379 -0.17906,-0.0691 -0.29392,-0.0929 l -0.0219,-0.007 c -0.52961,-0.17723 -1.16181,-0.26593 -1.87825,-0.26593 -0.0389,0 -0.0768,-0.002 -0.11496,0 z m 17.34831,0 0,0.0673 c 0,0.10485 0,0.25312 -0.01,0.44536 -0.01,0.19326 -0.012,0.34193 -0.0219,0.45815 -0.012,0.0172 -0.0189,0.0394 -0.0189,0.064 l 0,1.45779 c 0,0.0267 0,0.056 0.016,0.0801 3e-4,0 0,0.009 0,0.0256 l 0,0.57671 c 0,0.16302 -6e-4,0.31936 -0.01,0.46456 -0.01,0.14598 -0.017,0.29963 -0.0289,0.46778 l 0,0.16981 c -0.012,0.18237 -0.016,0.36936 -0.016,0.55107 l 0,0.54467 c 0,0.42715 -0.0189,0.8634 -0.0538,1.3008 -0.0349,0.43253 -0.0748,0.87826 -0.12134,1.32322 -0.012,0.0968 -0.0189,0.2089 -0.0189,0.33321 l 0,1.29118 c 0,0.0346 0,0.062 0.016,0.0833 0,0 0,0.006 0,0.0224 0,0.0916 0,0.17134 -0.01,0.2403 -0.01,0.0683 -0.014,0.13815 -0.0259,0.21786 l 0,0.53506 0.75064,0.10573 0,-0.42933 c 0,-0.0203 0,-0.0347 0.01,-0.0416 0.01,-0.0246 0.011,-0.0445 0.01,-0.0544 0.013,-0.0862 0.0189,-0.18864 0.0189,-0.30116 l 0,-0.99001 c 0,-0.0592 -0.01,-0.11266 -0.0189,-0.15379 l 0,-0.49021 c 0,-0.10841 0.01,-0.21376 0.0189,-0.32359 0,-0.0684 0.01,-0.096 0.01,-0.10573 0.017,-0.0253 0.0259,-0.0679 0.0259,-0.16661 l 0,-0.16019 c 0.0339,-0.33271 0.0618,-0.71255 0.0857,-1.12778 0.0229,-0.41254 0.0349,-0.7842 0.0349,-1.10857 l 0,-0.54467 c 0,-0.17005 0.01,-0.35216 0.0189,-0.54466 l 0,-0.80738 c 0,-0.0437 0,-0.09 0.01,-0.13458 0.01,-0.049 0.01,-0.1047 0.01,-0.1666 l 0,-0.57671 c 0,-0.0343 0,-0.0643 -0.016,-0.0865 0,-2.7e-4 0,-0.003 0,-0.0193 l 0,-1.40652 c 0,-0.0157 0,-0.0268 0.01,-0.0385 0.01,-0.025 0.011,-0.0474 0.01,-0.0577 0.012,-0.0946 0.0219,-0.2358 0.0289,-0.42931 0.01,-0.1879 0.01,-0.35231 0.01,-0.49342 l 0,-0.0673 -0.71555,0 z m -5.74652,0.0513 c -0.0828,5e-5 -0.1658,0.005 -0.24915,0.01 -0.0957,0.006 -0.18484,0.0132 -0.27158,0.0257 -0.0538,0.0107 -0.0977,0.019 -0.1341,0.0192 -0.23908,0.0241 -0.48823,0.0878 -0.74436,0.19544 -0.25244,0.10599 -0.47517,0.2089 -0.6644,0.30437 -0.1657,0.095 -0.31874,0.19455 -0.45353,0.29476 -0.1353,0.0997 -0.26022,0.19454 -0.38016,0.29156 l -0.23639,0.21465 0,-0.0288 -0.4312,0.43253 c -0.17827,0.16685 -0.35304,0.3623 -0.51754,0.58631 -0.16132,0.21954 -0.31585,0.44741 -0.45992,0.67604 l -0.13739,0.24669 -0.01,0.0256 c -2e-4,6.2e-4 -0.01,0.0204 -0.0508,0.0641 l -0.01,0.0128 c -0.2357,0.40254 -0.41585,0.83712 -0.5334,1.29117 -0.11745,0.45291 -0.20688,0.88954 -0.2652,1.30081 -0.0349,0.31539 -0.0508,0.66744 -0.0508,1.04448 0,0.69525 0.11615,1.40165 0.34496,2.10177 0.23071,0.70499 0.60947,1.31451 1.12761,1.81022 0.13101,0.13161 0.26879,0.24709 0.41206,0.34281 0.14088,0.0946 0.28524,0.17852 0.42811,0.24991 l 0.0259,0.007 c 5e-4,2.6e-4 0.017,0.007 0.0738,0.0609 l 0.24596,0.15378 0,-0.01 0.0289,0.0193 c 0.0538,0.0219 0.11345,0.0556 0.17886,0.0993 0.0588,0.0392 0.11156,0.0746 0.15334,0.10574 0.01,0.0304 0.0289,0.0615 0.0638,0.0961 0.0429,0.043 0.0937,0.0714 0.15015,0.0865 l 0.0189,0.016 c 0.016,0.0307 0.0518,0.0709 0.12452,0.0769 l 0.14058,0.0769 c 0.131,0.0838 0.28145,0.16302 0.44725,0.23388 0.1676,0.0724 0.35334,0.11548 0.55573,0.12817 0.0299,0.008 0.0887,0.016 0.22363,0.016 0.40239,0 0.80817,-0.0649 1.20427,-0.19545 0.39402,-0.12944 0.77886,-0.30693 1.14356,-0.52544 0.36391,-0.21787 0.70429,-0.47021 1.01575,-0.75292 0.31056,-0.28246 0.58733,-0.57491 0.82422,-0.87147 0.44606,-0.61259 0.77756,-1.30541 0.98384,-2.06012 0.20478,-0.75292 0.30987,-1.52622 0.30987,-2.30042 0,-0.23441 -0.011,-0.45125 -0.0289,-0.64079 -0.0179,-0.18788 -0.0379,-0.37165 -0.0608,-0.54786 -0.0469,-0.34924 -0.10957,-0.7123 -0.18535,-1.08293 -0.0768,-0.3709 -0.16121,-0.71449 -0.25553,-1.02206 -0.131,-0.34577 -0.31525,-0.6627 -0.54625,-0.94196 -0.23111,-0.27925 -0.50488,-0.53389 -0.80817,-0.75611 -0.23739,-0.19032 -0.4652,-0.33295 -0.68036,-0.42292 -0.21066,-0.0878 -0.42332,-0.17328 -0.63568,-0.25632 l -0.24596,-0.0865 c -0.10449,-0.0349 -0.25543,-0.0797 -0.4664,-0.13456 -0.21964,-0.0564 -0.4645,-0.0802 -0.71226,-0.0801 z m -31.09993,0.16018 c -0.15703,-0.004 -0.31346,0.005 -0.45354,0.0256 -0.12373,0.0176 -0.25074,0.0365 -0.38335,0.0608 -0.51295,0.1197 -0.9299,0.35205 -1.23618,0.68885 -0.30867,0.34013 -0.45632,0.76919 -0.44396,1.27516 l 0,0.28194 c 0,0.10113 0.012,0.1975 0.0349,0.27874 0.0469,0.2253 0.11954,0.46342 0.21396,0.71129 0.0927,0.2449 0.1986,0.49531 0.31625,0.74329 0.11655,0.24595 0.23459,0.48689 0.35134,0.72089 0.11396,0.22978 0.22542,0.44445 0.3322,0.63438 l 0.23639,0.45177 0.0219,0.0256 -0.01,0 0.57178,0.69845 0.24915,0.48059 0.0608,0.0897 c 0,0.0389 0.0209,0.0765 0.0509,0.11214 0.011,0.0602 0.0548,0.1352 0.12782,0.22747 0.16161,0.35923 0.31505,0.75933 0.46001,1.18866 0.14277,0.42433 0.21715,0.80765 0.21715,1.13739 0,0.30183 -0.0927,0.60158 -0.27149,0.89391 -0.17995,0.29296 -0.43519,0.53466 -0.75383,0.71127 -0.28205,0.11316 -0.5322,0.1698 -0.74426,0.1698 -0.0429,0 -0.0837,-0.004 -0.13419,-0.016 -0.11695,-0.0106 -0.22453,-0.053 -0.32582,-0.12814 -0.1026,-0.0756 -0.18106,-0.16405 -0.24277,-0.27234 -0.15793,-0.18033 -0.29023,-0.37692 -0.39292,-0.58311 -0.1006,-0.20084 -0.15494,-0.426 -0.1661,-0.67283 l -0.01,-0.0289 c -0.01,-0.0151 -0.01,-0.0224 -0.01,-0.0224 0,-0.0298 0,-0.0192 0,-0.0192 0.011,-0.0208 0.016,-0.044 0.016,-0.0673 l 0,-0.49019 -0.73469,0 0,0.43893 c -0.012,0.027 -0.016,0.0523 -0.016,0.0865 0,0.15852 0.01,0.25746 0.0349,0.31718 0.0249,0.23864 0.10728,0.49417 0.24277,0.75934 0.13569,0.26655 0.28235,0.50506 0.43759,0.70806 0.11804,0.14226 0.265,0.28579 0.43768,0.42933 0.17936,0.14866 0.38285,0.23491 0.59092,0.25632 0.0419,0.0142 0.0917,0.0224 0.15334,0.0224 l 0.11495,0 c 0.19113,0 0.38285,-0.0191 0.57178,-0.0545 0.19253,-0.0363 0.36261,-0.083 0.50788,-0.14418 0.50129,-0.23914 0.86709,-0.56734 1.08932,-0.97079 0.22064,-0.40061 0.3322,-0.84493 0.3322,-1.32322 0,-0.47354 -0.0768,-0.94439 -0.23001,-1.40012 -0.15264,-0.45341 -0.3314,-0.87441 -0.5303,-1.24952 l -0.1022,-0.25951 c -0.0369,-0.0849 -0.0927,-0.19455 -0.16929,-0.33001 -0.0768,-0.13713 -0.18145,-0.29759 -0.31305,-0.4774 l -0.18206,-0.21465 c -0.12432,-0.12432 -0.22512,-0.23799 -0.30029,-0.33642 -0.0708,-0.0929 -0.12343,-0.18327 -0.15972,-0.27874 l -0.15643,-0.29477 c -0.0818,-0.17569 -0.16919,-0.37254 -0.26839,-0.58951 -0.0987,-0.21608 -0.19801,-0.43856 -0.29701,-0.66642 -0.0997,-0.22927 -0.19232,-0.45675 -0.27158,-0.67923 -0.0818,-0.22632 -0.15205,-0.4356 -0.20758,-0.61195 l -0.016,-0.10892 c -0.012,-0.0562 -0.0199,-0.11279 -0.0259,-0.16983 -0.01,-0.0549 -0.01,-0.0932 -0.01,-0.11534 0,-0.27591 0.11096,-0.51736 0.33858,-0.74011 0.22991,-0.22491 0.49371,-0.38408 0.78583,-0.47418 l 0.0419,-0.0128 c 0.22382,-0.0479 0.41445,-0.0737 0.56859,-0.0737 0.0648,0 0.15992,0.0179 0.28105,0.0513 0.12423,0.034 0.24566,0.0739 0.35773,0.11856 0.12053,0.0551 0.25264,0.14981 0.39291,0.27873 0.12892,0.1192 0.18226,0.23249 0.16291,0.34924 l -0.016,0.0801 0.7986,0 0,-0.0673 c 0,-0.1848 -0.0339,-0.35282 -0.10219,-0.49661 -0.0678,-0.14085 -0.15454,-0.26348 -0.25873,-0.36845 -0.10279,-0.10265 -0.21315,-0.18839 -0.32911,-0.25632 -0.11006,-0.0634 -0.20667,-0.12558 -0.29062,-0.18582 -0.16929,-0.0969 -0.3318,-0.16533 -0.48873,-0.20184 -0.14098,-0.0323 -0.2997,-0.0476 -0.45683,-0.0513 z m 31.13822,0.59274 c 0.14426,0 0.31675,0.03 0.51425,0.0865 0.20309,0.0585 0.35782,0.10266 0.46321,0.13776 0.25663,0.0824 0.49321,0.17174 0.70916,0.26273 0.21745,0.092 0.41904,0.20262 0.60369,0.33001 0.26041,0.15866 0.47916,0.34603 0.64845,0.56069 0.16919,0.21594 0.30777,0.48648 0.40887,0.80097 0.0917,0.34731 0.16909,0.68603 0.2332,1.00604 0.0628,0.31796 0.12681,0.6527 0.18524,0.99001 0.0229,0.16302 0.0429,0.33232 0.0608,0.51263 0.0169,0.18032 0.0259,0.36101 0.0259,0.53186 0,0.32166 -0.0289,0.66282 -0.0867,1.01564 -0.0578,0.35499 -0.13978,0.70973 -0.24267,1.05409 -0.10359,0.34692 -0.22881,0.68475 -0.3674,1.00923 -0.13828,0.32296 -0.29411,0.61657 -0.4632,0.86507 -0.19512,0.25349 -0.42981,0.50506 -0.6995,0.7465 -0.27019,0.24224 -0.56659,0.45702 -0.88165,0.6408 -0.31565,0.18416 -0.64855,0.33654 -0.98703,0.45176 -0.33559,0.11379 -0.67337,0.1698 -1.00308,0.1698 l -0.0289,0 c -0.19013,-0.0107 -0.37348,-0.052 -0.54616,-0.12495 -0.17717,-0.0743 -0.34845,-0.16046 -0.50478,-0.2499 l -0.76021,-0.51265 c -0.17059,-0.0914 -0.33629,-0.18466 -0.49511,-0.27874 -0.15334,-0.0911 -0.31845,-0.21851 -0.48873,-0.37805 -0.4324,-0.39922 -0.74745,-0.90518 -0.93599,-1.50585 -0.18943,-0.60554 -0.28424,-1.23454 -0.28424,-1.86788 0,-0.15868 0.01,-0.32654 0.016,-0.49661 0.012,-0.17186 0.0289,-0.33719 0.0508,-0.49341 0.0578,-0.37089 0.14556,-0.77599 0.25553,-1.20469 0.10857,-0.42469 0.25413,-0.79226 0.43439,-1.08612 l 0.24915,-0.35884 c 0.0907,-0.18211 0.20728,-0.37037 0.34506,-0.56069 0.10588,-0.14597 0.22303,-0.28335 0.35135,-0.40689 l 0.32263,-0.24351 0.24915,-0.23068 c 0.11176,-0.12379 0.24466,-0.24374 0.39291,-0.35242 0.14716,-0.10818 0.32174,-0.20711 0.52064,-0.30117 0.15842,-0.0911 0.35294,-0.18595 0.57816,-0.27875 0.22373,-0.0919 0.41565,-0.15339 0.55902,-0.18582 l 0.11495,0 c 0.0578,0 0.11725,-0.007 0.17896,-0.0193 0.0558,-0.0107 0.11396,-0.0196 0.17567,-0.0256 0.0608,-0.005 0.10539,-0.01 0.12782,-0.01 z m 5.42717,10.96063 0,0.3172 c 0,0.0729 0.01,0.14633 0.0189,0.22107 0.014,0.0848 0.0519,0.15814 0.10858,0.21465 l 0.0189,0.0193 0.0927,0 0.01,0.0192 0.0479,0 0,0 c 0.01,0 0.0299,-5.1e-4 0.0478,-0.0192 l 0.013,0 0,-0.0193 c 0.0479,-0.005 0.10957,-0.0152 0.18854,-0.0353 0.0419,-0.0137 0.0847,-0.0374 0.12452,-0.0641 l 0.0289,-0.0192 0,-0.61196 -0.6995,-0.0224 z m -23.05344,0.0897 -0.12453,0.87468 0.81136,0 0.016,-0.0448 c 0.0369,-0.0977 0.0608,-0.1984 0.0738,-0.30438 0.012,-0.1038 0.0189,-0.25222 0.0189,-0.43894 l 0,-0.0705 -0.38334,0 c -0.0798,0 -0.15474,-3.9e-4 -0.22363,-0.007 -0.0728,-0.006 -0.11555,-0.01 -0.12772,-0.01 l -0.0608,0 z m 1.99968,9.7944 -0.20767,0.11855 0,3.33208 0.20767,0 0,-3.45063 z m 1.12761,0 -0.20768,0.11855 0,0.84584 -0.31944,0 0,0.17621 0.31944,0 0,1.87109 c 0,0.33141 0.14786,0.48059 0.42173,0.48059 0.17916,0 0.31645,-0.0329 0.44397,-0.0897 l 0.01,-0.18261 c -0.11805,0.0567 -0.23061,0.0833 -0.37697,0.0833 -0.20329,0 -0.28743,-0.10406 -0.28743,-0.3268 l 0,-1.83585 0.65802,0 0,-0.17621 -0.65802,0 0,-0.96439 z m 6.77512,0 -0.20758,0.11855 0,0.84584 -0.32263,0 0,0.17621 0.32263,0 0,1.87109 c 0,0.33141 0.14456,0.48059 0.41844,0.48059 0.17946,0 0.31675,-0.0329 0.44397,-0.0897 l 0.01,-0.18261 c -0.11805,0.0567 -0.23061,0.0833 -0.37687,0.0833 -0.20309,0 -0.28754,-0.10406 -0.28754,-0.3268 l 0,-1.83585 0.65483,0 0,-0.17621 -0.65483,0 0,-0.96439 z m 4.69567,0.0192 c -0.30219,0 -0.53031,0.1489 -0.53031,0.5799 l 0,0.36525 -0.36729,0 0,0.17621 0.36729,0 0,2.31003 0.20768,0 0,-2.31003 0.57816,0 0,-0.17621 -0.57816,0 0,-0.38126 c 0,-0.289 0.15124,-0.37487 0.33539,-0.37487 0.12752,0 0.22333,0.0243 0.29392,0.0577 l 0,-0.20186 c -0.0708,-0.0234 -0.16341,-0.0448 -0.30987,-0.0448 z m 1.54286,0 c -0.30249,0 -0.52712,0.1489 -0.52712,0.5799 l 0,0.36525 -0.37048,0 0,0.17621 0.37048,0 0,2.31003 0.20768,0 0,-2.31003 0.57497,0 0,-0.17621 -0.57497,0 0,-0.38126 c 0,-0.289 0.15124,-0.37487 0.33539,-0.37487 0.12752,0 0.22004,0.0243 0.29072,0.0577 l 0.01,-0.20186 c -0.0708,-0.0234 -0.16689,-0.0448 -0.31305,-0.0448 z m -18.36735,0.89389 c -0.4296,0 -0.72192,0.25464 -0.72192,0.59593 0,0.37383 0.18973,0.51583 0.69959,0.7337 0.48624,0.20826 0.6325,0.34653 0.6325,0.60233 0,0.30296 -0.21824,0.47739 -0.60059,0.47739 -0.27378,0 -0.49621,-0.0987 -0.68993,-0.25952 l -0.11186,0.15059 c 0.23599,0.18468 0.47288,0.28835 0.7986,0.28835 0.44845,0 0.80178,-0.22286 0.80178,-0.66322 0,-0.40228 -0.23549,-0.55722 -0.72193,-0.76573 -0.46729,-0.1989 -0.60368,-0.31155 -0.60368,-0.57671 0,-0.22248 0.18694,-0.40369 0.50787,-0.40369 0.29272,0 0.47846,0.0854 0.64845,0.21787 l 0.11815,-0.15059 c -0.16521,-0.13738 -0.41246,-0.2467 -0.75703,-0.2467 z m 2.3606,0 c -0.32093,0 -0.58454,0.0851 -0.80179,0.19863 l 0.0768,0.16983 c 0.21246,-0.11382 0.42921,-0.19225 0.71236,-0.19225 0.43908,0 0.64526,0.18955 0.64526,0.66322 l 0,0.36846 c -0.17468,-0.0995 -0.42931,-0.18584 -0.7315,-0.18584 -0.49092,0 -0.9295,0.25157 -0.9295,0.80099 0,0.58246 0.41485,0.76573 0.82093,0.76573 0.3636,0 0.65104,-0.18455 0.84007,-0.42612 l 0,0.37485 0.20757,0 0,-1.72372 c 0,-0.59655 -0.30179,-0.81378 -0.84007,-0.81378 z m 8.01459,0 c -0.42961,0 -0.72193,0.25464 -0.72193,0.59593 0,0.37383 0.18973,0.51583 0.6995,0.7337 0.48634,0.20826 0.6325,0.34653 0.6325,0.60233 0,0.30296 -0.21805,0.47739 -0.6005,0.47739 -0.27387,0 -0.49321,-0.0987 -0.68683,-0.25952 l -0.11496,0.15059 c 0.23589,0.18468 0.47278,0.28835 0.7986,0.28835 0.44845,0 0.80169,-0.22286 0.80169,-0.66322 0,-0.40228 -0.23539,-0.55722 -0.72183,-0.76573 -0.46739,-0.1989 -0.60378,-0.31155 -0.60378,-0.57671 0,-0.22248 0.18694,-0.40369 0.50787,-0.40369 0.29282,0 0.47866,0.0854 0.64845,0.21787 l 0.11824,-0.15059 c -0.165,-0.13738 -0.41256,-0.2467 -0.75702,-0.2467 z m -3.96417,0.0513 0.90079,2.47343 -0.32901,0.88749 0.20757,0 1.24266,-3.36092 -0.22362,0 -0.78903,2.23634 -0.78574,-2.23634 -0.22362,0 z m 7.01469,0 0,1.52507 c 0,0.71498 0.35304,1.01245 0.88165,1.01245 0.37298,0 0.68205,-0.16302 0.78584,-0.471 l 0,0.41973 0.20757,0 0,-2.48625 -0.20757,0 0,1.49304 c 0,0.64385 -0.38415,0.86184 -0.74755,0.86184 -0.44387,0 -0.71226,-0.2622 -0.71226,-0.86826 l 0,-1.48662 -0.20768,0 z m -11.17368,1.1406 c 0.32582,0 0.55204,0.0769 0.74107,0.18582 l 0,0.57672 c -0.17936,0.26988 -0.45872,0.46457 -0.80817,0.46457 -0.34925,0 -0.64845,-0.1652 -0.64845,-0.60555 0,-0.40716 0.3001,-0.62156 0.71555,-0.62156 z m -5.76895,1.00603 c -0.0987,0 -0.17886,0.0898 -0.17886,0.18903 0,0.0995 0.0798,0.17942 0.17886,0.17942 0.0947,0 0.17887,-0.08 0.17887,-0.17942 0,-0.0992 -0.0847,-0.18903 -0.17887,-0.18903 z m 0.99661,0 c -0.0987,0 -0.17887,0.0898 -0.17887,0.18903 0,0.0995 0.0798,0.17942 0.17887,0.17942 0.0947,0 0.17886,-0.08 0.17886,-0.17942 0,-0.0992 -0.0847,-0.18903 -0.17886,-0.18903 z m 0.9966,0 c -0.0987,0 -0.17886,0.0898 -0.17886,0.18903 0,0.0995 0.0798,0.17942 0.17886,0.17942 0.0947,0 0.17896,-0.08 0.17896,-0.17942 0,-0.0992 -0.0847,-0.18903 -0.17896,-0.18903 z" id="path5976" inkscape:connector-curvature="0" />
  </g>
</svg>
